<?xml version="1.0" encoding="UTF-8"?>
<svg width="20px" height="20px" viewBox="0 0 20 20" version="1.1" xmlns="http://www.w3.org/2000/svg" xmlns:xlink="http://www.w3.org/1999/xlink">
    <!-- Generator: Sketch 50.2 (55047) - http://www.bohemiancoding.com/sketch -->
    <title>article_catalog</title>
    <desc>Created with Sketch.</desc>
    <defs></defs>
    <g id="Page-1" stroke="none" stroke-width="1" fill="none" fill-rule="evenodd">
        <g id="切图" transform="translate(-607.000000, -47.000000)">
            <g id="article_catalog" transform="translate(607.000000, 47.000000)">
                <rect id="Rectangle-3-Copy-2" x="0" y="0" width="20" height="20"></rect>
                <path d="M2,3 C2.55228475,3 3,3.44771525 3,4 C3,4.55228475 2.55228475,5 2,5 C1.44771525,5 1,4.55228475 1,4 C1,3.44771525 1.44771525,3 2,3 Z M2,9 C2.55228475,9 3,9.44771525 3,10 C3,10.5522847 2.55228475,11 2,11 C1.44771525,11 1,10.5522847 1,10 C1,9.44771525 1.44771525,9 2,9 Z M2,15 C2.55228475,15 3,15.4477153 3,16 C3,16.5522847 2.55228475,17 2,17 C1.44771525,17 1,16.5522847 1,16 C1,15.4477153 1.44771525,15 2,15 Z M7,3 L18,3 C18.5522847,3 19,3.44771525 19,4 C19,4.55228475 18.5522847,5 18,5 L7,5 C6.44771525,5 6,4.55228475 6,4 C6,3.44771525 6.44771525,3 7,3 Z M7,9 L18,9 C18.5522847,9 19,9.44771525 19,10 C19,10.5522847 18.5522847,11 18,11 L7,11 C6.44771525,11 6,10.5522847 6,10 C6,9.44771525 6.44771525,9 7,9 Z M7,15 L18,15 C18.5522847,15 19,15.4477153 19,16 C19,16.5522847 18.5522847,17 18,17 L7,17 C6.44771525,17 6,16.5522847 6,16 C6,15.4477153 6.44771525,15 7,15 Z" id="Combined-Shape" fill="#282828"></path>
            </g>
        </g>
    </g>
</svg>