<?xml version="1.0" encoding="UTF-8"?>
<svg width="20px" height="20px" viewBox="0 0 20 20" version="1.1" xmlns="http://www.w3.org/2000/svg" xmlns:xlink="http://www.w3.org/1999/xlink">
    <!-- Generator: Sketch 50.2 (55047) - http://www.bohemiancoding.com/sketch -->
    <title>article_delayread</title>
    <desc>Created with Sketch.</desc>
    <defs></defs>
    <g id="Page-1" stroke="none" stroke-width="1" fill="none" fill-rule="evenodd">
        <g id="切图" transform="translate(-526.000000, -47.000000)">
            <g id="article_delayread" transform="translate(526.000000, 47.000000)">
                <path d="M10,0.7 C8.7134417,0.7 7.50833134,0.941626137 6.37884371,1.4248294 C5.24269936,1.91088046 4.25620942,2.57358383 3.41489662,3.41489662 C2.57358383,4.25620942 1.91088046,5.24269936 1.4248294,6.37884371 C0.941626137,7.50833134 0.7,8.7134417 0.7,10 C0.7,11.2865583 0.941626137,12.4916687 1.4248294,13.6211563 C1.91088046,14.7573006 2.57358383,15.7437906 3.41489662,16.5851034 C4.25620942,17.4264162 5.24269936,18.0891195 6.37884371,18.5751706 C7.50833134,19.0583739 8.7134417,19.3 10,19.3 C11.2865583,19.3 12.4916687,19.0583739 13.6211563,18.5751706 C14.7573006,18.0891195 15.7437906,17.4264162 16.5851034,16.5851034 C17.4264162,15.7437906 18.0891195,14.7573006 18.5751706,13.6211563 C19.0583739,12.4916687 19.3,11.2865583 19.3,10 C19.3,8.7134417 19.0583739,7.50833134 18.5751706,6.37884371 C18.0891195,5.24269936 17.4264162,4.25620942 16.5851034,3.41489662 C15.7437906,2.57358383 14.7573006,1.91088046 13.6211563,1.4248294 C12.4916687,0.941626137 11.2865583,0.7 10,0.7 Z" id="undefined---simple-line-icons" stroke="#282828" stroke-width="1.4"></path>
                <path d="M10.25,9.27261513 L13.1992188,12.0666118 C13.3164068,12.1776321 13.375,12.3164054 13.375,12.4829359 C13.375,12.6494663 13.3164068,12.7882396 13.1992188,12.8992599 C13.0820307,13.0226157 12.9355478,13.0842928 12.7597656,13.0842928 C12.5839835,13.0842928 12.4375006,13.0226157 12.3203125,12.8992599 L9.21484375,9.97574013 C9.21484375,9.96340454 9.21158857,9.95415299 9.20507812,9.9479852 C9.19856768,9.9418174 9.1953125,9.93873355 9.1953125,9.93873355 C9.13020801,9.8893912 9.08138037,9.82771419 9.04882812,9.75370066 C9.01627588,9.67968713 9,9.59950701 9,9.51315789 L9,3.59210526 C9,3.43174262 9.06184834,3.29296934 9.18554688,3.17578125 C9.30924541,3.05859316 9.45572832,3 9.625,3 C9.79427168,3 9.94075459,3.05859316 10.0644531,3.17578125 C10.1881517,3.29296934 10.25,3.43174262 10.25,3.59210526 L10.25,9.27261513 Z" id="Path" fill="#282828"></path>
            </g>
        </g>
    </g>
</svg>