<?xml version="1.0" encoding="UTF-8"?>
<svg width="40px" height="40px" viewBox="0 0 40 40" version="1.1" xmlns="http://www.w3.org/2000/svg" xmlns:xlink="http://www.w3.org/1999/xlink">
    <!-- Generator: Sketch 50.2 (55047) - http://www.bohemiancoding.com/sketch -->
    <title>collection_icon 5</title>
    <desc>Created with Sketch.</desc>
    <defs></defs>
    <g id="Page-1" stroke="none" stroke-width="1" fill="none" fill-rule="evenodd">
        <g id="切图" transform="translate(-616.000000, -119.000000)">
            <g id="collection_icon-5" transform="translate(616.000000, 119.000000)">
                <circle id="Oval-7" fill="#282828" cx="20" cy="20" r="20"></circle>
                <path d="M29.2227266,30 L12.1000128,30 C10.9402844,30 10,29.9980725 10,29.9980725 L10,13.0994797 C10,11.9400457 10.000557,11 10.0005569,11 L27.8494237,11 C27.8494237,11 27.8499807,11.9400457 27.8499807,13.0994797 L27.8499807,16.353639 L28.8999872,16.353639 C30.0597156,16.353639 31,17.2936847 31,18.4531187 L31,27.900606 C30.9997858,29.0599971 30.059587,29.9999572 28.8997729,29.9999572 L29.2227266,29.9999572 L29.2227266,30 Z M29.9497365,18.4531187 C29.9497706,18.1746999 29.8391562,17.9076746 29.6422344,17.7108028 C29.4453126,17.513931 29.1782195,17.4033447 28.8997301,17.4033788 L27.8497237,17.4033788 L27.8497237,27.9006916 C27.8496896,28.1791104 27.960304,28.4461357 28.1572258,28.6430075 C28.3541475,28.8398793 28.6212406,28.9504656 28.8997301,28.9504315 C29.1782405,28.9505338 29.4453732,28.8399694 29.6423098,28.6430828 C29.8392463,28.4461962 29.9498388,28.1791313 29.9497365,27.9006916 L29.9497365,18.4531187 Z" id="Shape" fill="#FFFFFF" fill-rule="nonzero"></path>
                <path d="M18.9723915,18.7078822 C18.7443245,18.7078822 18.558617,18.5395753 18.558617,18.3146326 C18.558617,18.0895667 18.7441997,17.9213829 18.9723915,17.9213829 L24.5342957,17.9213829 C24.7623626,17.9213829 24.9479037,18.0896898 24.9479037,18.3146326 C24.9479037,18.5395753 24.762321,18.7078822 24.5342957,18.7078822 L18.9723915,18.7078822 Z M18.9154267,21.8539206 C18.6873598,21.8539206 18.5016523,21.6856137 18.5016523,21.4606709 C18.5016523,21.2356051 18.687235,21.0674213 18.9154267,21.0674213 L24.477331,21.0674213 C24.7053979,21.0674213 24.890939,21.2357282 24.890939,21.4606709 C24.890939,21.6856137 24.7053563,21.8539206 24.477331,21.8539206 L18.9154267,21.8539206 Z M13.4472709,25 C13.2192039,25 13.0334964,24.8316931 13.0334964,24.6067503 C13.0334964,24.3818076 13.2190791,24.2135007 13.4472709,24.2135007 L24.4770397,24.2135007 C24.7051066,24.2135007 24.8906477,24.3818076 24.8906477,24.6067503 C24.8906477,24.8318162 24.7050651,25 24.4769149,25 L13.4472709,25 Z M13.4137745,15.8988681 C13.1856659,15.8988681 13,15.6743768 13,15.449434 C13,15.2244913 13.1855827,15 13.4137745,15 L24.5862672,15 C24.814459,15 25,15.2244913 25,15.449434 C25,15.6743768 24.8144173,15.8988681 24.5862672,15.8988681 L13.4137745,15.8988681 Z M17.3289862,21.4044865 C17.3289402,21.7147429 17.073946,21.966244 16.7593806,21.9662894 L13.6455863,21.9662894 C13.3310209,21.966244 13.0760267,21.7147429 13.0759807,21.4044865 L13.0759807,18.333347 C13.0760266,18.0230907 13.3310209,17.7715895 13.6455863,17.7715442 L16.7593806,17.7715442 C17.073946,17.7715895 17.3289403,18.0230907 17.3289862,18.333347 L17.3289862,21.4044865 Z" id="Shape" fill="#282828" fill-rule="nonzero" opacity="0.5"></path>
            </g>
        </g>
    </g>
</svg>