<?xml version="1.0" encoding="UTF-8"?>
<svg width="40px" height="40px" viewBox="0 0 40 40" version="1.1" xmlns="http://www.w3.org/2000/svg" xmlns:xlink="http://www.w3.org/1999/xlink">
    <!-- Generator: Sketch 50.2 (55047) - http://www.bohemiancoding.com/sketch -->
    <title>collection_icon 6</title>
    <desc>Created with Sketch.</desc>
    <defs></defs>
    <g id="Page-1" stroke="none" stroke-width="1" fill="none" fill-rule="evenodd">
        <g id="切图" transform="translate(-376.000000, -175.000000)">
            <g id="collection_icon-6" transform="translate(376.000000, 175.000000)">
                <circle id="Oval-7" fill="#282828" cx="20" cy="20" r="20"></circle>
                <path d="M9.92693882,30 C9.4225111,30 9.00305571,29.6038657 9.00305571,29.102088 C9.00305571,28.6150618 9.42239357,28.2101901 9.92693882,28.2101901 L31.0700055,28.2101901 C31.5744332,28.2101901 32,28.6150618 32,29.102088 C32,29.6038657 31.5744332,30 31.0700055,30 L9.92693882,30 Z M27.1405935,15.0967943 L20.4908916,11.8925433 L13.844363,15.0967943 L27.1405935,15.0967943 Z M23.9828665,16.889668 L23.9828665,26.6137382 L27.2561229,26.6137382 L27.2561229,16.889668 L23.9828665,16.889668 Z M18.8650172,16.889668 L18.8650172,26.6137382 L22.1289889,26.6137382 L22.1289889,16.889668 L18.8650172,16.889668 Z M13.7289511,16.889668 L13.7289511,26.6137382 L17.0080838,26.6137382 L17.0080838,16.889668 L13.7289511,16.889668 Z M10.902534,27.6877603 C10.5924966,27.6877603 10.3494499,27.4411835 10.3494499,27.1419551 C10.3494499,26.8485139 10.5924966,26.6137382 10.902534,26.6137382 L11.8811849,26.6137382 L11.8811849,16.889668 L9.92388311,16.889668 C9.41945539,16.889668 9,16.4935337 9,15.9976566 C9,15.6133235 9.24316425,15.2816419 9.58046796,15.1702114 L20.0836591,10.0880954 C20.3480958,9.96486366 20.6578981,9.97655138 20.9193966,10.0880954 L31.483467,15.2083383 C31.9301887,15.4166748 32.1185852,15.9565794 31.8875263,16.3996915 C31.7290661,16.6981049 31.4112224,16.8860507 31.063894,16.8867177 L29.1127037,16.8867177 L29.1127037,26.6109014 L30.0852432,26.6109014 C30.4013919,26.6109014 30.6444387,26.8455636 30.6444387,27.1390048 C30.6444387,27.4383466 30.4015095,27.6849235 30.0852432,27.6849235 L10.902534,27.6877603 Z" id="Shape" fill="#FFFFFF" fill-rule="nonzero"></path>
            </g>
        </g>
    </g>
</svg>