<?xml version="1.0" encoding="UTF-8"?>
<svg width="40px" height="40px" viewBox="0 0 40 40" version="1.1" xmlns="http://www.w3.org/2000/svg" xmlns:xlink="http://www.w3.org/1999/xlink">
    <!-- Generator: Sketch 50.2 (55047) - http://www.bohemiancoding.com/sketch -->
    <title>collection_icon 2</title>
    <desc>Created with Sketch.</desc>
    <defs></defs>
    <g id="Page-1" stroke="none" stroke-width="1" fill="none" fill-rule="evenodd">
        <g id="切图" transform="translate(-436.000000, -119.000000)">
            <g id="collection_icon-2" transform="translate(436.000000, 119.000000)">
                <circle id="Oval-7" fill="#282828" cx="20" cy="20" r="20"></circle>
                <path d="M15.959899,31.9982272 C14.2213265,31.9995398 12.6686542,30.8965525 12.0779682,29.2405814 C11.4872822,27.5846102 11.9854554,25.7313394 13.3234812,24.6071058 C14.6615071,23.4828722 16.5519926,23.3291487 18.0499996,24.2227724 C18.3168298,24.3818737 18.4057828,24.7299133 18.2486816,25.0001406 C18.0915805,25.2703679 17.7479163,25.3604535 17.4810861,25.2013522 C16.30786,24.5030164 14.8175456,24.691249 13.8496209,25.6600206 C12.8816962,26.6287923 12.678293,28.1357593 13.3539861,29.3320635 C14.0296793,30.5283677 15.4154402,31.1147468 16.730685,30.7608998 C18.0459297,30.4070528 18.9616422,29.2014967 18.9620116,27.8233079 L18.9620116,11.1785872 C18.9620116,9.4994571 17.61792,8.1382532 15.959899,8.1382532 C14.3018779,8.1382532 12.9577863,9.4994571 12.9577863,11.1785872 C12.9577863,12.8577173 14.3018779,14.2189212 15.959899,14.2189212 C16.1600529,14.2188792 16.3450205,14.3269953 16.4451094,14.5025336 C16.5451984,14.6780718 16.5451984,14.8943559 16.4451094,15.0698942 C16.3450205,15.2454324 16.1600529,15.3535485 15.959899,15.3535065 C14.2916625,15.3535063 12.7877244,14.3356961 12.1494816,12.7747555 C11.5112388,11.213815 11.8644075,9.41720626 13.0442792,8.22282026 C14.2241508,7.02843425 15.9983234,6.67153193 17.5393696,7.31856312 C19.0804158,7.96559431 20.0847922,9.48911181 20.0840841,11.1785872 L20.0840841,27.8233079 C20.0802269,30.1281241 18.2357418,31.9952994 15.959899,31.9982272 Z" id="Shape" fill="#FFFFFF" fill-rule="nonzero"></path>
                <path d="M10.2812672,18.1474228 C10.1171391,18.147372 9.96118451,18.0748749 9.85414447,17.9488703 C8.89816881,16.8117488 8.5919382,15.2543214 9.04487197,13.8330728 C9.49780574,12.4118243 10.6452773,11.3295447 12.0772833,10.9729436 C12.3717378,10.9150485 12.6591782,11.1015789 12.7302753,11.3966937 C12.8013725,11.6918085 12.6310562,11.9914447 12.3433597,12.0773915 C11.2865066,12.3381546 10.4391307,13.1359225 10.1053396,14.1843909 C9.77154862,15.2328593 9.99921726,16.3816493 10.7066394,17.2184811 C10.8489347,17.3869592 10.8812796,17.6239476 10.7894461,17.8251991 C10.6976127,18.0264507 10.4984306,18.1550834 10.2795167,18.1545139 L10.2812672,18.1474228 Z M12.0772833,28.3976917 C12.0252203,28.3977063 11.9733973,28.3905496 11.923239,28.3764182 C10.1500578,27.8672569 8.90267763,26.2591418 8.8340787,24.3938912 C8.76547976,22.5286405 9.89128344,20.8310095 11.6221525,20.1896763 C11.8126969,20.1068133 12.032854,20.1373359 12.1943977,20.2690125 C12.3559414,20.4006891 12.4324384,20.6119734 12.3932331,20.818195 C12.3540279,21.0244167 12.2055356,21.1918317 12.0072632,21.25335 C10.7341292,21.7264748 9.90635914,22.9757277 9.95658174,24.3481945 C10.0068043,25.7206613 10.9236062,26.9044392 12.2278265,27.2808343 C12.4946347,27.36007 12.6641051,27.6250059 12.6264401,27.9039934 C12.5887751,28.182981 12.3553012,28.3921229 12.0772833,28.3959189 L12.0772833,28.3976917 Z" id="Shape" fill="#FFFFFF" fill-rule="nonzero"></path>
                <path d="M9.56881247,23.3948797 C9.4799681,23.3950155 9.39236604,23.3737476 9.31323903,23.3328321 C7.9109625,22.6052764 7.02090985,21.1520692 7.00036359,19.5565529 C6.97981732,17.9610366 7.83214626,16.4848169 9.21521085,15.7204739 C9.48687495,15.5701844 9.82740429,15.6713818 9.97580442,15.9465046 C10.1242046,16.2216274 10.0242794,16.5664922 9.75261529,16.7167816 C8.73448305,17.2798323 8.10709083,18.3667311 8.12213123,19.5414439 C8.13717163,20.7161567 8.79218039,21.7862155 9.82438591,22.3223421 C10.0455728,22.4460555 10.1575949,22.7044206 10.0978532,22.9530605 C10.0381114,23.2017003 9.82139715,23.3790545 9.56881247,23.3860158 L9.56881247,23.3948797 Z M14.794064,20.3953199 C14.6176942,20.3954985 14.4417554,20.3776806 14.2689131,20.3421362 C14.0619202,20.3125926 13.888392,20.1687839 13.8188402,19.9691458 C13.7492884,19.7695076 13.7952862,19.5472587 13.9381426,19.3927081 C14.0809991,19.2381575 14.2969437,19.1770217 14.498229,19.2341427 C15.0562051,19.3258976 15.6245175,19.1489068 16.0351706,18.7554896 C16.3553753,18.4871633 16.5264951,18.0777293 16.4938024,17.6581329 C16.4675358,17.4570421 16.5491965,17.2570351 16.7080236,17.1334526 C16.8668507,17.0098701 17.0787146,16.9814872 17.2638083,17.0589955 C17.448902,17.1365037 17.5791052,17.3081278 17.6053718,17.5092185 C17.6901796,18.2934735 17.3907433,19.0701342 16.8036414,19.5887006 C16.2572987,20.1031693 15.5400785,20.3910525 14.794064,20.3953199 Z M19.481911,23.1342797 C19.1725427,23.1342797 18.9217501,22.8802941 18.9217501,22.566987 C18.9217501,22.3436155 18.4368607,22.2124291 18.3633396,22.1893828 C18.0588051,22.1330855 17.8569955,21.8374304 17.9125851,21.5290188 C17.9681747,21.2206071 18.260113,21.0162281 18.5646474,21.0725255 C19.1125549,21.1735745 20.042072,21.6043623 20.042072,22.566987 C20.042072,22.8802941 19.7912794,23.1342796 19.481911,23.1342797 Z M26.3928969,15.8658427 L21.9396173,15.8658427 C21.6302489,15.8658427 21.3794563,15.6118571 21.3794563,15.29855 C21.3794563,14.9852429 21.6302489,14.7312574 21.9396173,14.7312574 L26.3158748,14.7312574 L28.0663778,14.2171484 C28.3636615,14.1300099 28.6744092,14.3034344 28.7604523,14.6045029 C28.8464953,14.9055714 28.675251,15.2202754 28.3779674,15.307414 L26.5469412,15.8392508 C26.4969944,15.8550347 26.4451865,15.863978 26.3928969,15.8658427 Z" id="Shape" fill="#FFFFFF" fill-rule="nonzero"></path>
                <path d="M29.4912873,15.8658427 C28.4289863,15.8609525 27.5712798,14.9857236 27.5744953,13.9098918 C27.5777108,12.8340599 28.4406333,11.9641055 29.502944,11.9657281 C30.5652548,11.9673508 31.4255821,12.8399374 31.4255931,13.9157742 C31.4255984,14.434504 31.2215272,14.9318596 30.8585206,15.2978242 C30.4955141,15.6637889 30.0034906,15.8682005 29.4912873,15.8658427 Z M29.4912873,13.0861087 C29.0436183,13.0861256 28.6803627,13.4529731 28.6790873,13.9063397 C28.677812,14.3597063 29.0389979,14.7286439 29.4866595,14.7312439 C29.9343211,14.7338438 30.2996615,14.3691258 30.3035207,13.9157742 C30.3039856,13.6973069 30.2186165,13.4876262 30.0662428,13.33298 C29.9138691,13.1783337 29.7070086,13.0914266 29.4912873,13.0914271 L29.4912873,13.0861087 Z M28.4759955,25.0506651 C28.423232,25.0507195 28.3707445,25.0429552 28.3202008,25.0276188 L26.9898185,24.6376052 L21.9396173,24.6376052 C21.6302943,24.6375402 21.3795725,24.3835736 21.3795725,24.0703125 C21.3795725,23.7570514 21.6302943,23.5030849 21.9396173,23.5030199 L27.0685911,23.5030199 C27.1217982,23.5031128 27.174764,23.5102648 27.2261364,23.5242934 L28.6265388,23.9373533 C28.8965043,24.014386 29.0685999,24.2817499 29.0292441,24.5629872 C28.9898883,24.8442246 28.7512139,25.0526331 28.470744,25.0506651 L28.4759955,25.0506651 Z" id="Shape" fill="#FFFFFF" fill-rule="nonzero"></path>
                <path d="M30.23175,27.2116955 C29.1682963,27.2116955 28.3061967,26.3386201 28.3061967,25.2616271 C28.3061967,24.184634 29.1682963,23.3115586 30.23175,23.3115586 C31.2952038,23.3115586 32.1573033,24.184634 32.1573033,25.2616271 C32.1515626,26.3362027 31.2928168,27.2058816 30.23175,27.2116955 Z M30.23175,24.4301888 C29.7831659,24.4301888 29.4195166,24.7984679 29.4195166,25.2527631 C29.4195166,25.7070584 29.7831659,26.0753375 30.23175,26.0753375 C30.6803342,26.0753375 31.0439834,25.7070584 31.0439834,25.2527631 C31.0410963,24.8005462 30.6782913,24.4354977 30.23175,24.4355072 L30.23175,24.4301888 Z M32.0452712,21.4589936 C30.9829702,21.4541034 30.1252637,20.5788745 30.1284792,19.5030427 C30.1316947,18.4272108 30.9946172,17.5572564 32.0569279,17.558879 C33.1192387,17.5605017 33.979566,18.4330883 33.979577,19.5089251 C33.9728501,20.5865411 33.1093596,21.4570682 32.0452712,21.4589936 Z M32.0452712,18.6774868 C31.596687,18.6774868 31.2330378,19.0457659 31.2330378,19.5000612 C31.2330378,19.9543564 31.596687,20.3226355 32.0452712,20.3226355 C32.4938553,20.3226355 32.8575046,19.9543564 32.8575046,19.5000612 C32.8575046,19.2819009 32.7719302,19.0726759 32.6196069,18.9184133 C32.4672836,18.7641506 32.2606889,18.6774868 32.0452712,18.6774868 Z M26.3823939,31.0533304 C25.3189402,31.0533304 24.4568406,30.180255 24.4568406,29.1032619 C24.4568406,28.0262689 25.3189402,27.1531935 26.3823939,27.1531935 C27.4458477,27.1531935 28.3079472,28.0262689 28.3079472,29.1032619 C28.3022064,30.1778376 27.4434606,31.0475165 26.3823939,31.0533304 Z M26.3823939,28.2735965 C26.053717,28.2735972 25.7574371,28.4742034 25.6318221,28.7817961 C25.506207,29.0893887 25.5760197,29.4433313 25.8086799,29.6784458 C26.0413402,29.9135603 26.390983,29.983498 26.694437,29.8556204 C26.9978911,29.7277428 27.1953357,29.4272587 27.1946273,29.094398 C27.1926996,28.641488 26.8296144,28.275365 26.3823939,28.2753692 L26.3823939,28.2735965 Z M23.9281887,20.0691266 L21.9396173,20.0691266 C21.6419264,20.0522799 21.4090563,19.8028987 21.4090563,19.5009475 C21.4090563,19.1989963 21.6419264,18.9496152 21.9396173,18.9327685 L23.9281887,18.9327685 C24.2258795,18.9496152 24.4587496,19.1989963 24.4587496,19.5009475 C24.4587496,19.8028987 24.2258795,20.0522799 23.9281887,20.0691266 Z" id="Shape" fill="#FFFFFF" fill-rule="nonzero"></path>
                <path d="M24.8559553,29.5553233 L21.9396173,29.5553233 C21.6302943,29.5552583 21.3795725,29.3012917 21.3795725,28.9880306 C21.3795725,28.6747695 21.6302943,28.420803 21.9396173,28.420738 L24.8559553,28.420738 C25.1652783,28.420803 25.4160001,28.6747695 25.4160001,28.9880306 C25.4160001,29.3012917 25.1652783,29.5552583 24.8559553,29.5553233 Z M26.3823939,11.8345193 C25.3189402,11.8345193 24.4568406,10.9614439 24.4568406,9.88445084 C24.4568406,8.80745777 25.3189402,7.93438239 26.3823939,7.9343824 C27.4458477,7.9343824 28.3079472,8.80745779 28.3079472,9.88445085 C28.3022064,10.9590265 27.4434606,11.8287054 26.3823939,11.8345193 Z M26.3823939,9.05301257 C25.9338098,9.05301257 25.5701605,9.42129165 25.5701605,9.87558691 C25.5701605,10.3298822 25.9338098,10.6981613 26.3823939,10.6981613 C26.830978,10.6981613 27.1946273,10.3298822 27.1946273,9.87558691 C27.1946273,9.42129165 26.830978,9.05301257 26.3823939,9.05301257 Z" id="Shape" fill="#FFFFFF" fill-rule="nonzero"></path>
                <path d="M22.8559553,10.3365122 L19.9396173,10.3365122 C19.6302943,10.3364472 19.3795725,10.0824807 19.3795725,9.76921954 C19.3795725,9.45595842 19.6302943,9.20199189 19.9396173,9.2019269 L22.8559553,9.2019269 C23.0561092,9.20188485 23.2410768,9.31000102 23.3411658,9.48553925 C23.4412547,9.66107747 23.4412547,9.87736162 23.3411658,10.0528998 C23.2410768,10.2284381 23.0561092,10.3365542 22.8559553,10.3365122 Z M28.4575649,20.0691266 L24.0813074,20.0691266 C23.8733904,20.0808928 23.6760972,19.9752454 23.568639,19.7946006 C23.4611809,19.6139558 23.4611809,19.3879393 23.568639,19.2072945 C23.6760972,19.0266497 23.8733904,18.9210023 24.0813074,18.9327685 L28.4575649,18.9327685 C28.7552558,18.9496152 28.9881259,19.1989963 28.9881259,19.5009475 C28.9881259,19.8028987 28.7552558,20.0522799 28.4575649,20.0691266 Z" id="Shape" fill="#FFFFFF" fill-rule="nonzero"></path>
            </g>
        </g>
    </g>
</svg>