<?xml version="1.0" encoding="UTF-8"?>
<svg width="40px" height="40px" viewBox="0 0 40 40" version="1.1" xmlns="http://www.w3.org/2000/svg" xmlns:xlink="http://www.w3.org/1999/xlink">
    <!-- Generator: Sketch 50.2 (55047) - http://www.bohemiancoding.com/sketch -->
    <title>collection_icon 4</title>
    <desc>Created with Sketch.</desc>
    <defs></defs>
    <g id="Page-1" stroke="none" stroke-width="1" fill="none" fill-rule="evenodd">
        <g id="切图" transform="translate(-556.000000, -119.000000)">
            <g id="collection_icon-4" transform="translate(556.000000, 119.000000)">
                <circle id="Oval-7" fill="#282828" cx="20" cy="20" r="20"></circle>
                <path d="M28.9727337,17 C28.9727337,13.125 25.3581158,10 20.8929995,10 C18.6391789,10 16.6405078,10.7916667 15.1521357,12.0416667 C14.2591124,12.7083333 13.4936639,13.5833333 13.1109397,14.6666667 C12.8557902,15.2916667 12.6431656,16.1666667 12.6431656,16.8333333 C12.6431656,17.6666667 13.0684147,18.5416667 12.6856905,19.3333333 C12.430541,19.9166667 11.7501423,20.4166667 11.3248932,20.875 C11.3248932,20.875 10.0916706,21.6666667 12.430541,21.7916667 C12.5155908,21.7916667 12.8132652,23.1666667 12.8557902,23.4583333 C12.8132653,23.5 12.7707403,23.5833333 12.7707403,23.7083333 C12.7707403,23.9583333 13.1109397,24.1666667 13.5361888,24.1666667 L13.7913383,24.1666667 C13.2385144,24.25 12.8557902,24.4583333 12.8557902,24.75 C12.8557902,24.9583333 13.1109397,25.2083333 13.4936639,25.375 C13.4936639,25.375 13.0258898,26.875 13.7062885,27.2083333 C13.8338633,27.25 14.0039629,27.2916667 14.1740626,27.25 C15.1946606,27.2916667 16.9807071,27.25 18.0013051,27.25 L18.5116041,30 L27.5694114,30 L26.6763882,23.625 C28.292335,21.375 28.8451589,19.375 28.8451589,17.7083333 C28.9727337,17.5 28.9727337,17.25 28.9727337,17 Z M24.209943,15.7916667 C23.5720692,15.7916667 22.9767204,15.4166667 22.7215709,14.875 L21.4883483,15.5833333 C21.658448,15.9166667 21.7434978,16.25 21.7434978,16.625 C21.7434978,17.125 21.5733981,17.5833333 21.3182486,17.9583333 L23.6145942,19.25 C23.7421689,19.125 23.9547935,19 24.1674181,19 C24.6351922,19 24.9753915,19.375 24.9753915,19.7916667 C24.9753915,20.25 24.5926673,20.5833333 24.1674181,20.5833333 C23.699644,20.5833333 23.3594447,20.2083333 23.3594447,19.7916667 C23.3594447,19.7083333 23.4019696,19.625 23.4019696,19.5833333 L21.0205742,18.25 C20.5528001,18.7083333 19.9574513,19 19.2345277,19 C17.8737304,19 16.7680825,17.9166667 16.7680825,16.5833333 C16.7680825,15.25 17.8737304,14.1666667 19.2345277,14.1666667 C20.0850261,14.1666667 20.8079496,14.5833333 21.2331988,15.2083333 L22.5514712,14.4583333 C22.5514712,14.375 22.5089463,14.25 22.5089463,14.1666667 C22.5089463,13.2916667 23.2318699,12.5416667 24.1674181,12.5416667 C25.0604413,12.5416667 25.8258898,13.25 25.8258898,14.1666667 C25.8258898,15.0833333 25.1029662,15.7916667 24.209943,15.7916667 Z" id="Shape" fill="#FFFFFF" fill-rule="nonzero"></path>
            </g>
        </g>
    </g>
</svg>