<?xml version="1.0" encoding="UTF-8"?>
<svg width="40px" height="40px" viewBox="0 0 40 40" version="1.1" xmlns="http://www.w3.org/2000/svg" xmlns:xlink="http://www.w3.org/1999/xlink">
    <!-- Generator: Sketch 50.2 (55047) - http://www.bohemiancoding.com/sketch -->
    <title>collection_icon 7</title>
    <desc>Created with Sketch.</desc>
    <defs></defs>
    <g id="Page-1" stroke="none" stroke-width="1" fill="none" fill-rule="evenodd">
        <g id="切图" transform="translate(-436.000000, -175.000000)">
            <g id="collection_icon-7" transform="translate(436.000000, 175.000000)">
                <circle id="Oval-7" fill="#282828" cx="20" cy="20" r="20"></circle>
                <path d="M26.1909434,31.6094064 L14.3584906,31.6094064 C13.4950943,31.6094064 12.7886792,30.9255708 12.7886792,30.0897717 L12.7886792,23.1374429 C12.7886792,22.3016438 13.4950943,21.6178082 14.3584906,21.6178082 L26.1909434,21.6178082 C27.0543396,21.6178082 27.7607547,22.3016438 27.7607547,23.1374429 L27.7607547,30.1087671 C27.7607547,30.9255708 27.0543396,31.6094064 26.1909434,31.6094064 Z" id="Shape" fill="#FFFFFF" fill-rule="nonzero" opacity="0.300000012"></path>
                <path d="M26.1909434,31.9893151 L14.3584906,31.9893151 C13.2792453,31.9893151 12.3962264,31.1345205 12.3962264,30.0897717 L12.3962264,23.1374429 C12.3962264,22.0926941 13.2792453,21.2378995 14.3584906,21.2378995 L26.1909434,21.2378995 C27.2701887,21.2378995 28.1532075,22.0926941 28.1532075,23.1374429 L28.1532075,30.1087671 C28.1532075,31.153516 27.2701887,31.9893151 26.1909434,31.9893151 Z M14.3584906,21.9977169 C13.7109434,21.9977169 13.1811321,22.5105936 13.1811321,23.1374429 L13.1811321,30.1087671 C13.1811321,30.7356164 13.7109434,31.2484932 14.3584906,31.2484932 L26.1909434,31.2484932 C26.8384906,31.2484932 27.3683019,30.7356164 27.3683019,30.1087671 L27.3683019,23.1374429 C27.3683019,22.5105936 26.8384906,21.9977169 26.1909434,21.9977169 L14.3584906,21.9977169 Z" id="Shape" fill="#FFFFFF" fill-rule="nonzero"></path>
                <path d="M20.3433962,9.27077626 C17.3803774,9.27077626 14.9471698,11.62621 14.9471698,14.4755251 L14.9471698,19.813242 L25.7396226,19.813242 L25.7396226,14.4755251 C25.7396226,11.62621 23.3064151,9.27077626 20.3433962,9.27077626 Z" id="Shape" fill="#FFFFFF" fill-rule="nonzero" opacity="0.600000024"></path>
                <path d="M26.1320755,20.1931507 L14.554717,20.1931507 L14.554717,14.4755251 C14.554717,11.3982648 17.1449057,8.89086758 20.3433962,8.89086758 C23.5418868,8.89086758 26.1320755,11.3982648 26.1320755,14.4755251 L26.1320755,20.1931507 Z M15.3396226,19.4333333 L25.3471698,19.4333333 L25.3471698,14.4755251 C25.3471698,11.8161644 23.1101887,9.65068493 20.3433962,9.65068493 C17.5766038,9.65068493 15.3396226,11.8161644 15.3396226,14.4755251 L15.3396226,19.4333333 Z" id="Shape" fill="#FFFFFF" fill-rule="nonzero"></path>
                <polygon id="Shape" fill="#FFFFFF" fill-rule="nonzero" opacity="0.699999988" points="18.5381132 19.813242 21.9720755 19.813242 21.9720755 21.6178082 18.5381132 21.6178082"></polygon>
                <path d="M22.3841509,21.9977169 L18.1456604,21.9977169 L18.1456604,19.4333333 L22.3645283,19.4333333 L22.3645283,21.9977169 L22.3841509,21.9977169 Z M18.930566,21.2378995 L21.5796226,21.2378995 L21.5796226,20.1931507 L18.930566,20.1931507 L18.930566,21.2378995 Z" id="Shape" fill="#FFFFFF" fill-rule="nonzero"></path>
                <path d="M26.4656604,17.229863 C26.0732075,17.229863 25.7592453,16.9259361 25.7592453,16.5460274 L25.7592453,15.4063014 C25.7592453,15.0263927 26.0732075,14.7224658 26.4656604,14.7224658 C26.8581132,14.7224658 27.1720755,15.0263927 27.1720755,15.4063014 L27.1720755,16.5460274 C27.1720755,16.9259361 26.8581132,17.229863 26.4656604,17.229863 Z" id="Shape" fill="#FFFFFF" fill-rule="nonzero"></path>
                <path d="M26.4656604,17.6097717 C25.8573585,17.6097717 25.3667925,17.1348858 25.3667925,16.5460274 L25.3667925,15.4063014 C25.3667925,14.8174429 25.8573585,14.3425571 26.4656604,14.3425571 C27.0739623,14.3425571 27.5645283,14.8174429 27.5645283,15.4063014 L27.5645283,16.5460274 C27.5645283,17.1348858 27.0739623,17.6097717 26.4656604,17.6097717 Z M26.4656604,15.1213699 C26.2890566,15.1213699 26.1516981,15.2543379 26.1516981,15.4252968 L26.1516981,16.5650228 C26.1516981,16.7359817 26.2890566,16.8689498 26.4656604,16.8689498 C26.6422642,16.8689498 26.7796226,16.7359817 26.7796226,16.5650228 L26.7796226,15.4252968 C26.7796226,15.2543379 26.6422642,15.1213699 26.4656604,15.1213699 Z" id="Shape" fill="#FFFFFF" fill-rule="nonzero"></path>
                <path d="M14.1230189,16.9259361 C13.730566,16.9259361 13.4166038,16.6220091 13.4166038,16.2421005 L13.4166038,15.1023744 C13.4166038,14.7224658 13.730566,14.4185388 14.1230189,14.4185388 C14.5154717,14.4185388 14.829434,14.7224658 14.829434,15.1023744 L14.829434,16.2421005 C14.829434,16.6220091 14.4958491,16.9259361 14.1230189,16.9259361 Z" id="Shape" fill="#FFFFFF" fill-rule="nonzero"></path>
                <path d="M14.1230189,17.3058447 C13.514717,17.3058447 13.0241509,16.8309589 13.0241509,16.2421005 L13.0241509,15.1023744 C13.0241509,14.513516 13.514717,14.0386301 14.1230189,14.0386301 C14.7313208,14.0386301 15.2218868,14.513516 15.2218868,15.1023744 L15.2218868,16.2421005 C15.2218868,16.8309589 14.7116981,17.3058447 14.1230189,17.3058447 Z M14.1230189,14.8174429 C13.9464151,14.8174429 13.8090566,14.950411 13.8090566,15.1213699 L13.8090566,16.2610959 C13.8090566,16.4320548 13.9464151,16.5650228 14.1230189,16.5650228 C14.2996226,16.5650228 14.4369811,16.4320548 14.4369811,16.2610959 L14.4369811,15.1213699 C14.4369811,14.950411 14.28,14.8174429 14.1230189,14.8174429 Z" id="Shape" fill="#FFFFFF" fill-rule="nonzero"></path>
                <path d="M28.9381132,27.0884932 L28.1532075,27.0884932 C27.9373585,27.0884932 27.7607547,26.9175342 27.7607547,26.7085845 L27.7607547,25.3409132 C27.7607547,24.9230137 27.6822642,24.5810959 28.1139623,24.5810959 L28.9381132,24.5810959 C29.3698113,24.5810959 29.7230189,24.9230137 29.7230189,25.3409132 L29.7230189,26.3286758 C29.7230189,26.7465753 29.3698113,27.0884932 28.9381132,27.0884932 Z" id="Shape" fill="#FFFFFF" fill-rule="nonzero"></path>
                <path d="M28.9381132,27.4684018 L28.1532075,27.4684018 C27.7215094,27.4684018 27.3683019,27.126484 27.3683019,26.7085845 L27.3683019,25.3409132 L27.3683019,25.1889498 C27.3683019,24.9230137 27.3486792,24.6190868 27.5645283,24.410137 C27.7018868,24.2771689 27.8784906,24.2201826 28.1139623,24.2201826 L28.9381132,24.2201826 C29.5856604,24.2201826 30.1154717,24.7330594 30.1154717,25.3599087 L30.1154717,26.3476712 C30.1154717,26.9555251 29.5856604,27.4684018 28.9381132,27.4684018 Z M28.1335849,24.9610046 L28.1335849,26.7085845 L28.9184906,26.7085845 C29.1343396,26.7085845 29.3109434,26.5376256 29.3109434,26.3286758 L29.3109434,25.3409132 C29.3109434,25.1319635 29.1343396,24.9610046 28.9184906,24.9610046 L28.1335849,24.9610046 Z" id="Shape" fill="#FFFFFF" fill-rule="nonzero"></path>
                <path d="M29.5856604,26.2147032 L29.5660377,25.4548858 L29.5660377,25.8347945 L29.5660377,25.4548858 C29.7230189,25.4548858 31.0377358,25.3599087 31.0377358,23.7263014 L31.0377358,17.9136986 L31.8226415,17.9136986 L31.8226415,23.7452968 C31.8226415,26.1577169 29.605283,26.2147032 29.5856604,26.2147032 Z" id="Shape" fill="#FFFFFF" fill-rule="nonzero"></path>
                <path d="M11.5524528,27.0884932 L12.3373585,27.0884932 C12.5532075,27.0884932 12.7298113,26.9175342 12.7298113,26.7085845 L12.7298113,24.9610046 C12.7298113,24.7520548 12.5532075,24.5810959 12.3373585,24.5810959 L11.5524528,24.5810959 C11.1207547,24.5810959 10.7675472,24.9230137 10.7675472,25.3409132 L10.7675472,26.3286758 C10.7675472,26.7465753 11.1207547,27.0884932 11.5524528,27.0884932 Z" id="Shape" fill="#FFFFFF" fill-rule="nonzero"></path>
                <path d="M12.3373585,27.4684018 L11.5524528,27.4684018 C10.9049057,27.4684018 10.3750943,26.9555251 10.3750943,26.3286758 L10.3750943,25.3409132 C10.3750943,24.7140639 10.9049057,24.2011872 11.5524528,24.2011872 L12.3373585,24.2011872 C12.7690566,24.2011872 13.1222642,24.543105 13.1222642,24.9610046 L13.1222642,26.7085845 C13.1222642,27.126484 12.7690566,27.4684018 12.3373585,27.4684018 Z M11.5524528,24.9610046 C11.3366038,24.9610046 11.16,25.1319635 11.16,25.3409132 L11.16,26.3286758 C11.16,26.5376256 11.3366038,26.7085845 11.5524528,26.7085845 L12.3373585,26.7085845 L12.3373585,24.9610046 L11.5524528,24.9610046 Z M20.4611321,8.58694064 C19.7350943,8.58694064 19.1267925,8.01707763 19.1267925,7.29525114 C19.1267925,6.57342466 19.7154717,6.00356164 20.4611321,6.00356164 C21.2067925,6.00356164 21.7954717,6.57342466 21.7954717,7.29525114 C21.7954717,8.01707763 21.1871698,8.58694064 20.4611321,8.58694064 Z M20.4611321,6.763379 C20.1667925,6.763379 19.9116981,7.01031963 19.9116981,7.29525114 C19.9116981,7.58018265 20.1667925,7.82712329 20.4611321,7.82712329 C20.7554717,7.82712329 21.010566,7.58018265 21.010566,7.29525114 C21.010566,7.01031963 20.7554717,6.763379 20.4611321,6.763379 Z" id="Shape" fill="#FFFFFF" fill-rule="nonzero"></path>
                <polygon id="Shape" fill="#FFFFFF" fill-rule="nonzero" points="20.0490566 8.41598174 20.8339623 8.41598174 20.8339623 9.36575342 20.0490566 9.36575342"></polygon>
                <path d="M18.1456604,13.506758 C18.1456604,14.6397739 19.0944788,15.5582648 20.2649057,15.5582648 C21.4353325,15.5582648 22.3841509,14.6397739 22.3841509,13.506758 C22.3841509,12.373742 21.4353325,11.4552511 20.2649057,11.4552511 C19.0944788,11.4552511 18.1456604,12.373742 18.1456604,13.506758 Z" id="Shape" fill="#FFFFFF" fill-rule="nonzero" opacity="0.100000001"></path>
                <path d="M20.2649057,15.9381735 C18.8913208,15.9381735 17.7532075,14.8554338 17.7532075,13.506758 C17.7532075,12.1580822 18.8716981,11.0753425 20.2649057,11.0753425 C21.6581132,11.0753425 22.7766038,12.1580822 22.7766038,13.506758 C22.7766038,14.8554338 21.6384906,15.9381735 20.2649057,15.9381735 Z M20.2649057,11.8351598 C19.3230189,11.8351598 18.5381132,12.5759817 18.5381132,13.506758 C18.5381132,14.4375342 19.3033962,15.1783562 20.2649057,15.1783562 C21.2264151,15.1783562 21.9916981,14.4375342 21.9916981,13.506758 C21.9916981,12.5759817 21.2067925,11.8351598 20.2649057,11.8351598 Z" id="Shape" fill="#FFFFFF" fill-rule="nonzero"></path>
                <path d="M22.7569811,17.2868493 C22.7569811,17.4547035 22.8975468,17.5907763 23.0709434,17.5907763 C23.24434,17.5907763 23.3849057,17.4547035 23.3849057,17.2868493 C23.3849057,17.1189951 23.24434,16.9829224 23.0709434,16.9829224 C22.8975468,16.9829224 22.7569811,17.1189951 22.7569811,17.2868493 Z" id="Shape" fill="#FFFFFF" fill-rule="nonzero"></path>
                <path d="M17.4981132,23.9922374 L14.9471698,23.9922374 C14.7313208,23.9922374 14.554717,23.8212785 14.554717,23.6123288 C14.554717,23.403379 14.7313208,23.2324201 14.9471698,23.2324201 L17.4981132,23.2324201 C17.7139623,23.2324201 17.890566,23.403379 17.890566,23.6123288 C17.890566,23.8212785 17.7139623,23.9922374 17.4981132,23.9922374 Z" id="Shape" fill="#FFFFFF" fill-rule="nonzero"></path>
                <path d="M19.7743396,13.506758 C19.7743396,13.7690302 19.9939735,13.9816438 20.2649057,13.9816438 C20.5358378,13.9816438 20.7554717,13.7690302 20.7554717,13.506758 C20.7554717,13.2444858 20.5358378,13.0318721 20.2649057,13.0318721 C19.9939735,13.0318721 19.7743396,13.2444858 19.7743396,13.506758 Z" id="Shape" fill="#FFFFFF" fill-rule="nonzero"></path>
                <path d="M31.4301887,18.4835616 C30.5864151,18.4835616 29.8603774,17.8377169 29.8603774,17.096895 C29.8603774,16.8879452 30.0369811,16.7169863 30.2528302,16.7169863 C30.4686792,16.7169863 30.645283,16.8879452 30.645283,17.096895 C30.645283,17.4198174 31.0181132,17.7237443 31.4301887,17.7237443 C31.8422642,17.7237443 32.2150943,17.4198174 32.2150943,17.096895 C32.2150943,16.8879452 32.3916981,16.7169863 32.6075472,16.7169863 C32.8233962,16.7169863 33,16.8879452 33,17.096895 C33,17.8377169 32.2739623,18.4835616 31.4301887,18.4835616 Z" id="Shape" fill="#FFFFFF" fill-rule="nonzero"></path>
                <path d="M10.5124528,26.2147032 C10.4928302,26.2147032 8.2754717,26.1387215 8.2754717,23.7263014 L8.2754717,17.9136986 L9.06037736,17.9136986 L9.06037736,23.7452968 C9.06037736,25.3789041 10.3750943,25.4548858 10.5320755,25.4738813 L10.5124528,26.2147032 Z" id="Shape" fill="#FFFFFF" fill-rule="nonzero"></path>
                <path d="M8.56981132,18.4835616 C7.72603774,18.4835616 7,17.8377169 7,17.096895 C7,16.8879452 7.17660377,16.7169863 7.39245283,16.7169863 C7.60830189,16.7169863 7.78490566,16.8879452 7.78490566,17.096895 C7.78490566,17.4198174 8.15773585,17.7237443 8.56981132,17.7237443 C8.98188679,17.7237443 9.35471698,17.4198174 9.35471698,17.096895 C9.35471698,16.8879452 9.53132075,16.7169863 9.74716981,16.7169863 C9.96301887,16.7169863 10.1396226,16.8879452 10.1396226,17.096895 C10.1396226,17.8377169 9.43320755,18.4835616 8.56981132,18.4835616 Z" id="Shape" fill="#FFFFFF" fill-rule="nonzero"></path>
                <path d="M21.6973585,29.272968 C21.6973585,29.6611309 22.0224167,29.9757991 22.4233962,29.9757991 C22.8243758,29.9757991 23.149434,29.6611309 23.149434,29.272968 C23.149434,28.8848052 22.8243758,28.570137 22.4233962,28.570137 C22.0224167,28.570137 21.6973585,28.8848052 21.6973585,29.272968 Z" id="Shape" fill="#FFFFFF" fill-rule="nonzero"></path>
                <path d="M22.4233962,30.3557078 C21.8150943,30.3557078 21.3049057,29.8808219 21.3049057,29.272968 C21.3049057,28.6651142 21.7954717,28.1902283 22.4233962,28.1902283 C23.0513208,28.1902283 23.5418868,28.6651142 23.5418868,29.272968 C23.5418868,29.8808219 23.0316981,30.3557078 22.4233962,30.3557078 Z M22.4233962,28.9690411 C22.2467925,28.9690411 22.0898113,29.1020091 22.0898113,29.2919635 C22.0898113,29.4819178 22.2271698,29.6148858 22.4233962,29.6148858 C22.6196226,29.6148858 22.7569811,29.4819178 22.7569811,29.2919635 C22.7569811,29.1020091 22.6,28.9690411 22.4233962,28.9690411 Z" id="Shape" fill="#FFFFFF" fill-rule="nonzero"></path>
                <path d="M24.4445283,29.272968 C24.4445283,29.6611309 24.7695865,29.9757991 25.170566,29.9757991 C25.5715456,29.9757991 25.8966038,29.6611309 25.8966038,29.272968 C25.8966038,28.8848052 25.5715456,28.570137 25.170566,28.570137 C24.7695865,28.570137 24.4445283,28.8848052 24.4445283,29.272968 Z" id="Shape" fill="#FFFFFF" fill-rule="nonzero"></path>
                <path d="M25.170566,30.3557078 C24.5622642,30.3557078 24.0520755,29.8808219 24.0520755,29.272968 C24.0520755,28.6651142 24.5426415,28.1902283 25.170566,28.1902283 C25.7984906,28.1902283 26.2890566,28.6651142 26.2890566,29.272968 C26.2890566,29.8808219 25.7788679,30.3557078 25.170566,30.3557078 Z M25.170566,28.9690411 C24.9939623,28.9690411 24.8369811,29.1020091 24.8369811,29.2919635 C24.8369811,29.4819178 24.9743396,29.6148858 25.170566,29.6148858 C25.3667925,29.6148858 25.5041509,29.4819178 25.5041509,29.2919635 C25.5041509,29.1020091 25.3471698,28.9690411 25.170566,28.9690411 Z" id="Shape" fill="#FFFFFF" fill-rule="nonzero"></path>
            </g>
        </g>
    </g>
</svg>