<?xml version="1.0" encoding="UTF-8"?>
<svg width="40px" height="40px" viewBox="0 0 40 40" version="1.1" xmlns="http://www.w3.org/2000/svg" xmlns:xlink="http://www.w3.org/1999/xlink">
    <!-- Generator: Sketch 50.2 (55047) - http://www.bohemiancoding.com/sketch -->
    <title>collection_icon 1</title>
    <desc>Created with Sketch.</desc>
    <defs></defs>
    <g id="Page-1" stroke="none" stroke-width="1" fill="none" fill-rule="evenodd">
        <g id="切图" transform="translate(-376.000000, -119.000000)">
            <g id="collection_icon-1" transform="translate(376.000000, 119.000000)">
                <circle id="Oval-7" fill="#282828" cx="20" cy="20" r="20"></circle>
                <path d="M27.4545373,29.9999554 L15.090903,29.9999554 L15.090903,13.0768441 L20.4999552,13.0768441 L20.4999552,20.0960551 L23.2362103,18.0272651 L25.9090746,20.0960551 L25.9090746,13.0768664 L29,13.0768441 L29,28.4614663 C29,29.3102917 28.3072528,29.9998884 27.4545597,29.9998884 L27.4545373,29.999933 L27.4545373,29.9999554 Z M23.2362103,17.019211 L21.2727313,18.5576331 L21.2727313,12.3076442 L25.1363208,12.3076442 L25.1363208,18.5576331 L23.2362103,17.019211 Z M12.7727089,11.538422 L12.7727089,12.3076442 C12.7727089,12.7328494 13.1182977,13.0768887 13.5454179,13.0768887 L14.3181716,13.0768887 L14.3181716,30 L13.5454179,30 C12.6912224,30 12,29.3104033 12,28.4615556 L12,11.5384444 C12,10.688101 12.6912224,10 13.5454179,10 L27.4545373,10 C28.02501,10 28.5170233,10.3110462 28.7856775,10.7692445 L13.5454403,10.7692445 C13.1183201,10.7692445 12.7727313,11.1132615 12.7727313,11.538422 L12.7727089,11.538422 Z" id="Shape" fill="#FFFFFF" fill-rule="nonzero"></path>
            </g>
        </g>
    </g>
</svg>