<?xml version="1.0" encoding="UTF-8"?>
<svg width="22px" height="22px" viewBox="0 0 22 22" version="1.1" xmlns="http://www.w3.org/2000/svg" xmlns:xlink="http://www.w3.org/1999/xlink">
    <!-- Generator: Sketch 50.2 (55047) - http://www.bohemiancoding.com/sketch -->
    <title>ic_article_delete read</title>
    <desc>Created with Sketch.</desc>
    <defs></defs>
    <g id="Page-1" stroke="none" stroke-width="1" fill="none" fill-rule="evenodd">
        <g id="切图" transform="translate(-306.000000, -130.000000)">
            <g id="ic_article_delete-read" transform="translate(306.000000, 130.000000)">
                <rect id="Rectangle-5-Copy" x="0" y="0" width="22" height="22"></rect>
                <path d="M16.0515464,1.20266667 L21,1.20266667 L21,3.66666667 L1,3.66666667 L1,1.20266667 L5.98281787,1.20266667 L7.4604811,0 L14.5738832,0 L16.0515464,1.20266667 Z M5.91408935,10.824 L8.97250859,13.464 L5.98281787,16.0453333 L7.97594502,17.7466667 L11,15.1946667 L14.024055,17.7466667 L16.0515464,16.0453333 L13.0274914,13.464 L16.0515464,10.824 L14.024055,9.09333333 L11,11.7333333 L7.97594502,9.09333333 L5.91408935,10.824 Z M2.40893471,19.536 L2.40893471,4.86933333 L19.5910653,4.86933333 L19.5910653,19.536 C19.5910653,20.2008922 19.3046993,20.7777753 18.7319588,21.2666667 C18.1592182,21.755558 17.4833945,22 16.7044674,22 L5.29553265,22 C4.5166055,22 3.84078179,21.755558 3.26804124,21.2666667 C2.69530069,20.7777753 2.40893471,20.2008922 2.40893471,19.536 Z" fill="#FFFFFF"></path>
            </g>
        </g>
    </g>
</svg>