<?xml version="1.0" encoding="UTF-8"?>
<svg width="22px" height="22px" viewBox="0 0 22 22" version="1.1" xmlns="http://www.w3.org/2000/svg" xmlns:xlink="http://www.w3.org/1999/xlink">
    <!-- Generator: Sketch 50.2 (55047) - http://www.bohemiancoding.com/sketch -->
    <title>ic_article_delay read </title>
    <desc>Created with Sketch.</desc>
    <defs></defs>
    <g id="Page-1" stroke="none" stroke-width="1" fill="none" fill-rule="evenodd">
        <g id="切图" transform="translate(-274.000000, -130.000000)">
            <g id="ic_article_delay-read-" transform="translate(274.000000, 130.000000)">
                <rect id="Rectangle-5" x="0" y="0" width="22" height="22"></rect>
                <path d="M11,0 C14.0446581,0 16.6391262,1.0721619 18.7834821,3.21651786 C20.9278381,5.36087382 22,7.95534192 22,11 C22,14.0446581 20.9278381,16.6391262 18.7834821,18.7834821 C16.6391262,20.9278381 14.0446581,22 11,22 C7.95534192,22 5.36087382,20.9278381 3.21651786,18.7834821 C1.0721619,16.6391262 0,14.0446581 0,11 C0,7.95534192 1.0721619,5.36087382 3.21651786,3.21651786 C5.36087382,1.0721619 7.95534192,0 11,0 Z M11,1.96428571 C10.7380939,1.96428571 10.6071429,2.09523679 10.6071429,2.35714286 C10.6071429,2.61904893 10.7380939,2.75 11,2.75 C11.2619061,2.75 11.3928571,2.61904893 11.3928571,2.35714286 C11.3928571,2.09523679 11.2619061,1.96428571 11,1.96428571 Z M2.35714286,11.3928571 C2.61904893,11.3928571 2.75,11.2619061 2.75,11 C2.75,10.7380939 2.61904893,10.6071429 2.35714286,10.6071429 C2.09523679,10.6071429 1.96428571,10.7380939 1.96428571,11 C1.96428571,11.2619061 2.09523679,11.3928571 2.35714286,11.3928571 Z M3.73214286,15.6651786 C3.92857241,15.5669638 3.96131018,15.3869061 3.83035714,15.125 C3.73214237,14.9285704 3.56845353,14.8794638 3.33928571,14.9776786 C3.1101179,15.0758933 3.06101125,15.2559511 3.19196429,15.5178571 C3.29017906,15.747025 3.47023679,15.7961316 3.73214286,15.6651786 Z M3.83035714,6.875 C3.96131018,6.61309393 3.92857241,6.43303621 3.73214286,6.33482143 C3.47023679,6.20386839 3.29017906,6.25297504 3.19196429,6.48214286 C3.06101125,6.74404893 3.1101179,6.92410665 3.33928571,7.02232143 C3.56845353,7.12053621 3.73214237,7.07142955 3.83035714,6.875 Z M6.48214286,3.19196429 C6.25297504,3.29017906 6.20386839,3.47023679 6.33482143,3.73214286 C6.43303621,3.92857241 6.61309393,3.96131018 6.875,3.83035714 C7.07142955,3.73214237 7.12053621,3.56845353 7.02232143,3.33928571 C6.92410665,3.1101179 6.74404893,3.06101125 6.48214286,3.19196429 Z M7.02232143,18.6607143 C7.12053621,18.4315465 7.07142955,18.2678576 6.875,18.1696429 C6.61309393,18.0386898 6.43303621,18.0714276 6.33482143,18.2678571 C6.20386839,18.5297632 6.25297504,18.7098209 6.48214286,18.8080357 C6.74404893,18.9389888 6.92410665,18.8898821 7.02232143,18.6607143 Z M11,20.0357143 C11.2619061,20.0357143 11.3928571,19.9047632 11.3928571,19.6428571 C11.3928571,19.3809511 11.2619061,19.25 11,19.25 C10.7380939,19.25 10.6071429,19.3809511 10.6071429,19.6428571 C10.6071429,19.9047632 10.7380939,20.0357143 11,20.0357143 Z M11.3928571,11.6875 C11.8511928,11.4583322 11.9494061,11.0982167 11.6875,10.6071429 C11.5238087,10.3452368 11.2946443,10.2142857 11,10.2142857 L9.13392857,7.07142857 C9.03571379,6.87499902 8.85565607,6.84226125 8.59375,6.97321429 C8.39732045,7.07142906 8.36458268,7.25148679 8.49553571,7.51339286 L10.3125,10.6071429 C10.1488087,10.8690489 10.1488087,11.1309511 10.3125,11.3928571 C10.3452383,11.4255954 10.377976,11.4665176 10.4107143,11.515625 C10.4434525,11.5647324 10.4761903,11.6056546 10.5089286,11.6383929 C10.5416668,11.6711311 10.5744046,11.6875 10.6071429,11.6875 L10.6071429,17.6785714 C10.6071429,17.9404775 10.7380939,18.0714286 11,18.0714286 C11.2619061,18.0714286 11.3928571,17.9404775 11.3928571,17.6785714 L11.3928571,11.6875 Z M15.5178571,18.8080357 C15.747025,18.7098209 15.7961316,18.5297632 15.6651786,18.2678571 C15.5669638,18.0714276 15.3869061,18.0386898 15.125,18.1696429 C14.9285704,18.2678576 14.8794638,18.4315465 14.9776786,18.6607143 C15.0758933,18.8898821 15.2559511,18.9389888 15.5178571,18.8080357 Z M15.6651786,3.73214286 C15.7961316,3.47023679 15.747025,3.29017906 15.5178571,3.19196429 C15.2559511,3.06101125 15.0758933,3.1101179 14.9776786,3.33928571 C14.8794638,3.56845353 14.9285704,3.73214237 15.125,3.83035714 C15.3869061,3.96131018 15.5669638,3.92857241 15.6651786,3.73214286 Z M18.8080357,15.5178571 C18.9389888,15.2559511 18.8898821,15.0758933 18.6607143,14.9776786 C18.4315465,14.8794638 18.2678576,14.9285704 18.1696429,15.125 C18.0386898,15.3869061 18.0714276,15.5669638 18.2678571,15.6651786 C18.5297632,15.7961316 18.7098209,15.747025 18.8080357,15.5178571 Z M18.6607143,7.02232143 C18.8898821,6.92410665 18.9389888,6.74404893 18.8080357,6.48214286 C18.7098209,6.25297504 18.5297632,6.20386839 18.2678571,6.33482143 C18.0714276,6.43303621 18.0386898,6.61309393 18.1696429,6.875 C18.2678576,7.07142955 18.4315465,7.12053621 18.6607143,7.02232143 Z M19.6428571,11.3928571 C19.9047632,11.3928571 20.0357143,11.2619061 20.0357143,11 C20.0357143,10.7380939 19.9047632,10.6071429 19.6428571,10.6071429 C19.3809511,10.6071429 19.25,10.7380939 19.25,11 C19.25,11.2619061 19.3809511,11.3928571 19.6428571,11.3928571 Z" fill="#FFFFFF"></path>
            </g>
        </g>
    </g>
</svg>