<?xml version="1.0" encoding="UTF-8"?>
<svg width="62px" height="62px" viewBox="0 0 62 62" version="1.1" xmlns="http://www.w3.org/2000/svg" xmlns:xlink="http://www.w3.org/1999/xlink">
    <!-- Generator: Sketch 50.2 (55047) - http://www.bohemiancoding.com/sketch -->
    <title>ic_chatbot_n</title>
    <desc>Created with Sketch.</desc>
    <defs>
        <circle id="path-1" cx="31" cy="31" r="31"></circle>
        <path d="M18.7732611,3.38753151 C18.7732611,3.38753151 20.2742819,5.31860789 19.4736969,5.3505929 C12.0422991,5.64876601 1.3128195,15.362964 0.0642230824,24.4739942 C-1.02951455,35.2538541 12.1687392,39.1760356 15.9324611,40.1633266 C22.5021815,42.2547829 30.0547005,39.9897587 35.781588,35.7016443 C42.2408252,31.0163701 46.3695822,23.5878122 36.4045184,13.8837707 C33.5593113,10.6326681 30.2230847,8.23561101 27.0719593,6.33030455 C26.204507,5.80581093 23.5453127,4.09665901 23.363707,0.128698002 C21.8076725,2.21742565 22.9138718,5.58130946 22.3293901,5.53310456 C21.9479421,3.66660456 18.7732611,3.38753151 18.7732611,3.38753151" id="path-3"></path>
    </defs>
    <g id="Page-1" stroke="none" stroke-width="1" fill="none" fill-rule="evenodd">
        <g id="切图" transform="translate(-15.000000, -25.000000)">
            <g id="ic_chatbot_n" transform="translate(15.000000, 25.000000)">
                <g id="Group-2">
                    <mask id="mask-2" fill="white">
                        <use xlink:href="#path-1"></use>
                    </mask>
                    <use id="Mask" fill="#282828" xlink:href="#path-1"></use>
                    <g mask="url(#mask-2)">
                        <g transform="translate(19.000000, 47.000000)">
                            <path d="M12.5,21.7907715 C33.5195312,21.7907715 21.3457031,4.45713583 21.3457031,1.6366986 C21.3457031,-1.18373863 21.0604136,1.6366986 12.5,1.6366986 C3.93958638,1.6366986 3.59521484,-1.18373863 3.59521484,1.6366986 C3.59521484,4.45713583 -8.51953125,21.7907715 12.5,21.7907715 Z" id="Oval-8" stroke="#4B1C0F" stroke-width="0.52272" fill="#955A3A"></path>
                            <path d="M3.11803703,4.12216514 C5.21553165,5.55341703 8.14428493,6.26904297 11.9042969,6.26904297 C15.6643088,6.26904297 18.9929136,5.55341703 21.8901111,4.12216514 L20.9789215,1.97528731 L3.8187235,2.33157543 L3.11803703,4.12216514 Z" id="Path-7" stroke="none" fill="#D0A275"></path>
                        </g>
                    </g>
                </g>
                <g id="Group-5" transform="translate(9.000000, 11.000000)">
                    <g id="Group" transform="translate(0.800000, 0.000000)">
                        <g id="耳朵" transform="translate(6.065356, 5.067362)">
                            <g id="Group-3">
                                <path d="M0.0900126165,3.99191621 C-0.123659068,3.29809907 0.639085018,1.48268414 1.76899183,0.610145035 C3.24630509,-0.28119095 3.96300186,4.46153507 3.30663771,5.2755613 C3.01561262,5.63634015 0.430276416,5.09683934 0.0900126165,3.99191621" id="Fill-3" fill="#955A3A"></path>
                                <path d="M0.0900126165,3.99191621 C-0.123659068,3.29809907 0.639085018,1.48268414 1.76899183,0.610145035 C3.24630509,-0.28119095 3.96300186,4.46153507 3.30663771,5.2755613 C3.01561262,5.63634015 0.430276416,5.09683934 0.0900126165,3.99191621 Z" id="Stroke-5" stroke="#4B1C0F" stroke-width="0.5"></path>
                            </g>
                            <g id="Group-4" transform="translate(26.152542, 0.000000)">
                                <path d="M4.04306628,4.24985793 C4.32390929,3.58029483 3.74322686,1.69893923 2.70450284,0.720137109 C1.32217166,-0.311417548 0.142418254,4.33838518 0.715806068,5.21274333 C0.969750154,5.60020163 3.59581467,5.31612618 4.04306628,4.24985793" id="Fill-9" fill="#955A3A"></path>
                                <path d="M4.04306628,4.24985793 C4.32390929,3.58029483 3.74322686,1.69893923 2.70450284,0.720137109 C1.32217166,-0.311417548 0.142418254,4.33838518 0.715806068,5.21274333 C0.969750154,5.60020163 3.59581467,5.31612618 4.04306628,4.24985793 Z" id="Stroke-11" stroke="#4B1C0F" stroke-width="0.5"></path>
                            </g>
                        </g>
                        <g id="Fill-19">
                            <mask id="mask-4" fill="white">
                                <use xlink:href="#path-3"></use>
                            </mask>
                            <use id="Mask" fill="#955A3A" transform="translate(21.188479, 20.540465) scale(-1, 1) translate(-21.188479, -20.540465) " xlink:href="#path-3"></use>
                        </g>
                        <path d="M18.7732611,3.38753151 C18.7732611,3.38753151 20.2742819,5.31860789 19.4736969,5.3505929 C12.0422991,5.64876601 1.3128195,15.362964 0.0642230824,24.4739942 C-1.02951455,35.2538541 12.1687392,39.1760356 15.9324611,40.1633266 C22.5021815,42.2547829 30.0547005,39.9897587 35.781588,35.7016443 C42.2408252,31.0163701 46.3695822,23.5878122 36.4045184,13.8837707 C33.5593113,10.6326681 30.2230847,8.23561101 27.0719593,6.33030455 C26.204507,5.80581093 23.5453127,4.09665901 23.363707,0.128698002 C21.8076725,2.21742565 22.9138718,5.58130946 22.3293901,5.53310456 C21.9479421,3.66660456 18.7732611,3.38753151 18.7732611,3.38753151 Z" id="Stroke-17" stroke="#4B1C0F" stroke-width="0.5" transform="translate(21.188479, 20.540465) scale(-1, 1) translate(-21.188479, -20.540465) "></path>
                        <path d="M8.82670738,32.5843938 C8.49936115,32.5843938 8.16684789,32.5201206 7.84755613,32.3839948 C6.82220559,31.9477252 6.34334394,30.7610963 6.78041348,29.7383337 C7.13420272,28.9115741 8.09587728,28.5260865 8.92442495,28.8783764 C9.24979556,29.016776 9.50176401,29.2732625 9.63367513,29.6000857 C9.76543427,29.9273637 9.76193892,30.2861719 9.6231891,30.6107212 C9.51057835,30.8743323 9.30146581,31.078521 9.03506007,31.1858452 C8.76835039,31.2931693 8.47595756,31.2893796 8.21137548,31.1772047 C7.76640344,30.9881747 7.55865864,30.472928 7.74816688,30.0292306 C7.76640344,29.9861797 7.81579412,29.9654122 7.85804215,29.9851186 C7.90105004,30.0030059 7.92065434,30.0519688 7.90256975,30.0945649 C7.74923068,30.4533732 7.91746294,30.8699363 8.27748301,31.0236463 C8.50027297,31.1177823 8.74722638,31.1211172 8.97229591,31.0306193 C9.19736545,30.940273 9.37380416,30.7682209 9.46878624,30.5453869 C9.58990738,30.2617662 9.59325075,29.9485859 9.47805649,29.6626914 C9.36286222,29.3767969 9.14280774,29.1529018 8.8589253,29.0319348 C8.11472172,28.71451 7.25152459,29.0619492 6.93496832,29.803668 C6.53391599,30.7415415 6.97280918,31.8300931 7.91335971,32.2304364 C9.09904,32.7358299 10.4752923,32.1825346 10.9810529,30.9995438 C10.9992895,30.9566445 11.0485282,30.9364833 11.0913841,30.9554318 C11.1339361,30.9734707 11.1536923,31.0224336 11.1356077,31.0650297 C10.7296923,32.0141207 9.80099556,32.5843938 8.82670738,32.5843938" id="Fill-46" fill="#9A513B"></path>
                        <path d="M33.6211788,33.2732692 C33.3517336,33.2732692 33.0828963,33.2188492 32.8275845,33.1098576 C32.2121006,32.8479139 31.7356705,32.3622268 31.4862856,31.7423844 C31.2370526,31.1231485 31.2443472,30.4435806 31.5069537,29.8298018 C31.5251903,29.7867509 31.5732132,29.7661349 31.6171329,29.7856897 C31.6598368,29.8037287 31.6794411,29.8526915 31.6613566,29.8951361 C31.4160748,30.4681378 31.4092361,31.1019262 31.6419042,31.6803851 C31.8747243,32.2586923 32.3190885,32.7117881 32.893692,32.9562992 C33.3482383,33.1497251 33.8521752,33.154576 34.3123444,32.9716095 C34.7719057,32.7874304 35.1319257,32.4362016 35.3262971,31.9820447 C35.6440691,31.2397195 35.2972705,30.378701 34.5533709,30.061731 C33.9670655,29.8123692 33.2865379,30.0852271 33.0363931,30.6702043 C32.9409551,30.8928867 32.9382196,31.1390652 33.0286426,31.3634151 C33.1192175,31.5877649 33.2917049,31.7637583 33.5149508,31.8589554 C33.68911,31.9330818 33.8824175,31.9358104 34.0582483,31.8648674 C34.2340791,31.7946822 34.3719171,31.6596175 34.4463831,31.485898 C34.4647716,31.442847 34.5127946,31.4222311 34.5567143,31.4417859 C34.5994182,31.4598249 34.6188705,31.5087877 34.6009379,31.5512323 C34.5086913,31.7664869 34.3380275,31.9330818 34.1208605,32.0200932 C33.9032376,32.1078625 33.6643386,32.1046792 33.4489953,32.0125138 C33.1847171,31.9003389 32.9803157,31.6917541 32.8730239,31.4260208 C32.7660361,31.1596811 32.7692275,30.8683295 32.8822942,30.6047184 C33.1686082,29.9350037 33.9467014,29.6224297 34.6194784,29.9083242 C35.4480261,30.2610689 35.8344892,31.2206194 35.4806999,32.047379 C35.2686999,32.5429194 34.8758541,32.92583 34.3749566,33.1268354 C34.1310426,33.2243063 33.8761867,33.2732692 33.6211788,33.2732692" id="Fill-48" fill="#9A513B"></path>
                    </g>
                    <g id="Group-6" transform="translate(28.000000, 33.126984)"></g>
                </g>
            </g>
        </g>
    </g>
</svg>