<?xml version="1.0" encoding="UTF-8"?>
<svg width="62px" height="62px" viewBox="0 0 62 62" version="1.1" xmlns="http://www.w3.org/2000/svg" xmlns:xlink="http://www.w3.org/1999/xlink">
    <!-- Generator: Sketch 50.2 (55047) - http://www.bohemiancoding.com/sketch -->
    <title>ic_chatbot_h</title>
    <desc>Created with Sketch.</desc>
    <defs>
        <circle id="path-1" cx="31" cy="31" r="31"></circle>
        <path d="M18.7732611,3.38753151 C18.7732611,3.38753151 20.2742819,5.31860789 19.4736969,5.3505929 C12.0422991,5.64876601 1.3128195,15.362964 0.0642230824,24.4739942 C-1.02951455,35.2538541 12.1687392,39.1760356 15.9324611,40.1633266 C22.5021815,42.2547829 30.0547005,39.9897587 35.781588,35.7016443 C42.2408252,31.0163701 46.3695822,23.5878122 36.4045184,13.8837707 C33.5593113,10.6326681 30.2230847,8.23561101 27.0719593,6.33030455 C26.204507,5.80581093 23.5453127,4.09665901 23.363707,0.128698002 C21.8076725,2.21742565 22.9138718,5.58130946 22.3293901,5.53310456 C21.9479421,3.66660456 18.7732611,3.38753151 18.7732611,3.38753151" id="path-3"></path>
        <polygon id="path-5" points="0.00367714548 0.11259541 36.0200694 0.11259541 36.0200694 18.7968813 0.00367714548 18.7968813"></polygon>
        <path d="M5.13246133,0.633602454 C1.24093403,1.42657451 -1.75621771,8.65563087 2.5262855,11.8856802 C6.80878871,15.1157295 13.5610156,12.8002222 13.5610156,6.77443153 C13.5610156,1.77456027 8.75484925,-0.104527374 5.13246133,0.633602454 Z" id="path-7"></path>
        <path d="M5.95235877,0.121881866 C1.52460417,0.820324732 -1.55424778,8.30633215 2.72825543,11.5363814 C7.01075864,14.7664307 15.6274968,12.7282198 14.5610156,6.77443153 C13.76962,2.35634886 10.3801134,-0.576561001 5.95235877,0.121881866 Z" id="path-9"></path>
    </defs>
    <g id="Page-1" stroke="none" stroke-width="1" fill="none" fill-rule="evenodd">
        <g id="切图" transform="translate(-97.000000, -25.000000)">
            <g id="ic_chatbot_h" transform="translate(97.000000, 25.000000)">
                <g id="Group-2">
                    <mask id="mask-2" fill="white">
                        <use xlink:href="#path-1"></use>
                    </mask>
                    <use id="Mask" fill="#282828" xlink:href="#path-1"></use>
                    <g mask="url(#mask-2)" fill="#955A3A" id="Oval-8" stroke="#4B1C0F" stroke-width="0.52272">
                        <g transform="translate(16.000000, 48.000000)">
                            <path d="M15.5,20.7907715 C24.0604136,20.7907715 31,8.56398918 31,5.74355195 C31,2.92311473 24.0604136,0.6366986 15.5,0.6366986 C6.93958638,0.6366986 0,2.92311473 0,5.74355195 C0,8.56398918 6.93958638,20.7907715 15.5,20.7907715 Z"></path>
                        </g>
                    </g>
                </g>
                <g id="Group-5" transform="translate(8.000000, 11.000000)">
                    <g id="Group" transform="translate(1.800000, 0.000000)">
                        <g id="耳朵" transform="translate(6.065356, 5.067362)">
                            <g id="Group-3">
                                <path d="M0.0900126165,3.99191621 C-0.123659068,3.29809907 0.639085018,1.48268414 1.76899183,0.610145035 C3.24630509,-0.28119095 3.96300186,4.46153507 3.30663771,5.2755613 C3.01561262,5.63634015 0.430276416,5.09683934 0.0900126165,3.99191621" id="Fill-3" fill="#955A3A"></path>
                                <path d="M0.0900126165,3.99191621 C-0.123659068,3.29809907 0.639085018,1.48268414 1.76899183,0.610145035 C3.24630509,-0.28119095 3.96300186,4.46153507 3.30663771,5.2755613 C3.01561262,5.63634015 0.430276416,5.09683934 0.0900126165,3.99191621 Z" id="Stroke-5" stroke="#4B1C0F" stroke-width="0.5"></path>
                                <path d="M1.01911971,4.46273261 C0.819733333,4.0123654 1.1882638,2.72872031 1.87973333,2.05097147 C2.80341505,1.33305187 3.66570036,4.47076676 3.2886595,5.07150902 C3.12149104,5.33754553 1.33658781,5.17989427 1.01911971,4.46273261" id="Fill-7" fill="#D1A375"></path>
                                <path d="M1.76358313,3.28926577 C2.33134801,2.06064703 3.53967202,2.64471465 3.39317166,2.54239291 C2.15247776,-0.0203496332 1.07196163,4.23108048 1.44900249,4.83167115 C1.61617095,5.09785925 1.31800321,4.27397981 1.76358313,3.28926577" id="Fill-22" fill="#330805" transform="translate(2.389080, 3.305194) scale(-1, 1) translate(-2.389080, -3.305194) "></path>
                            </g>
                            <g id="Group-4" transform="translate(25.152542, 0.000000)">
                                <path d="M4.04306628,4.24985793 C4.32390929,3.58029483 3.74322686,1.69893923 2.70450284,0.720137109 C1.32217166,-0.311417548 0.142418254,4.33838518 0.715806068,5.21274333 C0.969750154,5.60020163 3.59581467,5.31612618 4.04306628,4.24985793" id="Fill-9" fill="#955A3A"></path>
                                <path d="M4.04306628,4.24985793 C4.32390929,3.58029483 3.74322686,1.69893923 2.70450284,0.720137109 C1.32217166,-0.311417548 0.142418254,4.33838518 0.715806068,5.21274333 C0.969750154,5.60020163 3.59581467,5.31612618 4.04306628,4.24985793 Z" id="Stroke-11" stroke="#4B1C0F" stroke-width="0.5"></path>
                                <path d="M3.5346918,4.51765285 C3.73407818,4.06728564 3.36539575,2.78364055 2.67407818,2.1060433 C1.75024449,1.38797211 0.888111157,4.52583859 1.26515202,5.12642927 C1.43232048,5.39261736 3.21707173,5.23481451 3.5346918,4.51765285" id="Fill-13" fill="#D1A375"></path>
                                <path d="M1.53634485,3.54151868 C2.10410972,2.31289994 3.31243374,2.89696755 3.16593338,2.79464582 C1.92523947,0.231903275 0.844723344,4.48333339 1.2217642,5.08392406 C1.38893266,5.35011215 1.09076492,4.52623272 1.53634485,3.54151868" id="Fill-22" fill="#330805"></path>
                            </g>
                        </g>
                        <g id="Fill-19">
                            <mask id="mask-4" fill="white">
                                <use xlink:href="#path-3"></use>
                            </mask>
                            <use id="Mask" fill="#955A3A" xlink:href="#path-3"></use>
                            <path d="M21.6145626,27.9044857 C21.6145626,27.9044857 23.5382156,23.2117837 29.7135705,22.6716765 C35.8889253,22.1315693 39.4528049,24.8036067 39.7710328,28.4226127 C40.5989726,34.558127 30.6143045,40.5957156 23.0845812,41.1984285 C12.496283,42.0459556 4.41232029,36.6222974 3.825559,31.5663911 C3.50748301,27.9473851 6.55070882,24.6974952 12.7260637,24.1573881 C18.9014185,23.6172809 21.6145626,27.9044857 21.6145626,27.9044857" fill="#D1A375" mask="url(#mask-4)"></path>
                        </g>
                        <path d="M18.7732611,3.38753151 C18.7732611,3.38753151 20.2742819,5.31860789 19.4736969,5.3505929 C12.0422991,5.64876601 1.3128195,15.362964 0.0642230824,24.4739942 C-1.02951455,35.2538541 12.1687392,39.1760356 15.9324611,40.1633266 C22.5021815,42.2547829 30.0547005,39.9897587 35.781588,35.7016443 C42.2408252,31.0163701 46.3695822,23.5878122 36.4045184,13.8837707 C33.5593113,10.6326681 30.2230847,8.23561101 27.0719593,6.33030455 C26.204507,5.80581093 23.5453127,4.09665901 23.363707,0.128698002 C21.8076725,2.21742565 22.9138718,5.58130946 22.3293901,5.53310456 C21.9479421,3.66660456 18.7732611,3.38753151 18.7732611,3.38753151 Z" id="Stroke-17" stroke="#4B1C0F" stroke-width="0.5"></path>
                        <g id="Group-21" transform="translate(3.799283, 22.489559)">
                            <mask id="mask-6" fill="white">
                                <use xlink:href="#path-5"></use>
                            </mask>
                            <g id="Clip-20"></g>
                        </g>
                        <path d="M18.3897006,32.8622541 C18.3897006,32.8622541 18.4061135,35.4594071 18.7561035,36.6061684 C19.1892218,36.7057616 20.1230856,36.7807975 20.8568032,36.9487568 C20.8277766,33.3582493 21.0142454,32.1034058 21.0142454,32.1034058 L21.3773049,36.997568 L23.1875874,36.6892385 C23.3208662,36.4897491 23.80991,32.9400186 23.80991,32.9400186 C23.80991,32.9400186 21.7051071,32.5437683 21.0716906,30.7400256 C20.4793064,31.9210458 19.7278082,32.1561584 18.3897006,32.8622541" id="Fill-24" fill="#FEFEFE"></path>
                        <path d="M18.3897006,32.8622541 C18.3897006,32.8622541 18.4061135,35.4594071 18.7561035,36.6061684 C19.1892218,36.7057616 20.1230856,36.7807975 20.8568032,36.9487568 C20.8277766,33.3582493 21.0142454,32.1034058 21.0142454,32.1034058 L21.3773049,36.997568 L23.1875874,36.6892385 C23.3208662,36.4897491 23.80991,32.9400186 23.80991,32.9400186 C23.80991,32.9400186 21.7051071,32.5437683 21.0716906,30.7400256 C20.4793064,31.9210458 19.7278082,32.1561584 18.3897006,32.8622541 Z" id="Stroke-26" stroke="#460A10" stroke-width="0.5" stroke-linecap="round" stroke-linejoin="round"></path>
                        <path d="M15.5679882,33.4203396 C14.5915725,33.4203396 13.4501158,33.2842138 12.1232542,32.9410191 C12.0484843,32.9214643 12.0033488,32.8456704 12.0228011,32.7710893 C12.0421015,32.6965081 12.1171753,32.6551246 12.193161,32.6710413 C15.8527825,33.6169489 18.0464886,32.962393 19.2417431,32.2450798 C20.5322836,31.4722854 20.9711768,30.4637721 20.9755839,30.4539189 C21.0058262,30.382521 21.0880427,30.3515971 21.1587094,30.3793377 C21.22968,30.4093521 21.2629617,30.4909063 21.2331753,30.5618493 C21.2146348,30.6059614 20.763128,31.6525232 19.4031366,32.4738257 C18.5986004,32.9595128 17.3620097,33.4203396 15.5679882,33.4203396" id="Fill-28" fill="#460A10"></path>
                        <path d="M26.4660648,33.4203396 C24.6717394,33.4203396 23.4357566,32.9595128 22.6309164,32.4738257 C21.270925,31.6525232 20.8194182,30.6059614 20.8008777,30.5618493 C20.7710913,30.4909063 20.804373,30.4093521 20.8753437,30.3793377 C20.9466182,30.3499297 21.0282268,30.382521 21.0584691,30.4539189 C21.0754899,30.4942412 22.8553781,34.4767546 29.841044,32.6710413 C29.9170297,32.6551246 29.9919515,32.6965081 30.0112519,32.7710893 C30.0307042,32.8456704 29.9855687,32.9214643 29.9107989,32.9410191 C28.5842411,33.2836074 27.4421766,33.4203396 26.4660648,33.4203396" id="Fill-30" fill="#460A10"></path>
                        <path d="M20.7083728,25.430225 C19.8463914,25.4534179 17.7504029,25.4167336 17.6563326,27.0569131 C17.5873376,28.8095707 19.0309133,29.0554461 19.986205,29.9849822 C20.3948559,30.3827484 21.0345032,30.9145183 21.0345032,30.9145183 C21.0345032,30.9145183 21.9379728,29.7889792 22.4753434,29.4016725 C23.5040373,28.6604084 25.6222136,25.2977373 20.7083728,25.430225" id="Fill-32" fill="#460A10"></path>
                        <path d="M37.4826486,18.3844414 C38.0311131,22.322388 35.2752651,25.9582203 31.3275059,26.5051489 C27.3795948,27.0522291 23.7345626,24.3033368 23.1860981,20.3655417 C22.6376335,16.4275951 25.3934816,12.7917628 29.3413927,12.2448342 C33.2893038,11.697754 36.9343361,14.4464947 37.4826486,18.3844414" id="Fill-34" stroke="#4B1C0F" stroke-width="0.5" fill="#FEFBF3"></path>
                        <path d="M35.4276315,17.8794874 C35.843881,20.8684947 33.7521477,23.6281497 30.7555771,24.0433486 C27.7591584,24.4585475 24.9925204,22.3720936 24.576271,19.3830863 C24.1600215,16.3942306 26.2517548,13.6345756 29.2481735,13.2193767 C32.2447441,12.8041779 35.0113821,14.8904801 35.4276315,17.8794874" id="Fill-36" fill="#460A10"></path>
                        <path d="M30.1162033,17.2241432 C29.5192599,17.3820977 28.9068155,17.0273823 28.7484614,16.4317941 C28.5902592,15.8363574 28.9458721,15.2254587 29.5429675,15.0676559 C30.1399108,14.9097014 30.7522033,15.2644168 30.9105574,15.860005 C31.0689115,16.4554417 30.7132986,17.0661888 30.1162033,17.2241432" id="Fill-38" fill="#FEFBF3"></path>
                        <path d="M19.6484335,18.3844414 C20.1968981,22.322388 17.44105,25.9582203 13.4931389,26.5051489 C9.54522781,27.0522291 5.90034753,24.3033368 5.35188301,20.3655417 C4.80341849,16.4275951 7.55926652,12.7917628 11.5071776,12.2448342 C15.4550887,11.697754 19.099969,14.4464947 19.6484335,18.3844414" id="Fill-40" stroke="#4B1C0F" stroke-width="0.5" fill="#FEFBF3"></path>
                        <path d="M17.5934013,17.8794874 C18.0096508,20.8684947 15.9179174,23.6281497 12.9213468,24.0433486 C9.92492817,24.4585475 7.15829018,22.3720936 6.74204072,19.3830863 C6.32563928,16.3942306 8.41752459,13.6345756 11.4139432,13.2193767 C14.4105138,12.8041779 17.1771518,14.8904801 17.5934013,17.8794874" id="Fill-42" fill="#460A10"></path>
                        <path d="M12.281973,17.2241432 C11.6848777,17.3820977 11.0725852,17.0273823 10.9142311,16.4317941 C10.756029,15.8363574 11.1116419,15.2254587 11.7087372,15.0676559 C12.3056806,14.9097014 12.917973,15.2644168 13.0763272,15.860005 C13.2346813,16.4554417 12.8789164,17.0661888 12.281973,17.2241432" id="Fill-44" fill="#FEFBF3"></path>
                        <path d="M8.82670738,32.5843938 C8.49936115,32.5843938 8.16684789,32.5201206 7.84755613,32.3839948 C6.82220559,31.9477252 6.34334394,30.7610963 6.78041348,29.7383337 C7.13420272,28.9115741 8.09587728,28.5260865 8.92442495,28.8783764 C9.24979556,29.016776 9.50176401,29.2732625 9.63367513,29.6000857 C9.76543427,29.9273637 9.76193892,30.2861719 9.6231891,30.6107212 C9.51057835,30.8743323 9.30146581,31.078521 9.03506007,31.1858452 C8.76835039,31.2931693 8.47595756,31.2893796 8.21137548,31.1772047 C7.76640344,30.9881747 7.55865864,30.472928 7.74816688,30.0292306 C7.76640344,29.9861797 7.81579412,29.9654122 7.85804215,29.9851186 C7.90105004,30.0030059 7.92065434,30.0519688 7.90256975,30.0945649 C7.74923068,30.4533732 7.91746294,30.8699363 8.27748301,31.0236463 C8.50027297,31.1177823 8.74722638,31.1211172 8.97229591,31.0306193 C9.19736545,30.940273 9.37380416,30.7682209 9.46878624,30.5453869 C9.58990738,30.2617662 9.59325075,29.9485859 9.47805649,29.6626914 C9.36286222,29.3767969 9.14280774,29.1529018 8.8589253,29.0319348 C8.11472172,28.71451 7.25152459,29.0619492 6.93496832,29.803668 C6.53391599,30.7415415 6.97280918,31.8300931 7.91335971,32.2304364 C9.09904,32.7358299 10.4752923,32.1825346 10.9810529,30.9995438 C10.9992895,30.9566445 11.0485282,30.9364833 11.0913841,30.9554318 C11.1339361,30.9734707 11.1536923,31.0224336 11.1356077,31.0650297 C10.7296923,32.0141207 9.80099556,32.5843938 8.82670738,32.5843938" id="Fill-46" fill="#9A513B"></path>
                        <path d="M33.6211788,33.2732692 C33.3517336,33.2732692 33.0828963,33.2188492 32.8275845,33.1098576 C32.2121006,32.8479139 31.7356705,32.3622268 31.4862856,31.7423844 C31.2370526,31.1231485 31.2443472,30.4435806 31.5069537,29.8298018 C31.5251903,29.7867509 31.5732132,29.7661349 31.6171329,29.7856897 C31.6598368,29.8037287 31.6794411,29.8526915 31.6613566,29.8951361 C31.4160748,30.4681378 31.4092361,31.1019262 31.6419042,31.6803851 C31.8747243,32.2586923 32.3190885,32.7117881 32.893692,32.9562992 C33.3482383,33.1497251 33.8521752,33.154576 34.3123444,32.9716095 C34.7719057,32.7874304 35.1319257,32.4362016 35.3262971,31.9820447 C35.6440691,31.2397195 35.2972705,30.378701 34.5533709,30.061731 C33.9670655,29.8123692 33.2865379,30.0852271 33.0363931,30.6702043 C32.9409551,30.8928867 32.9382196,31.1390652 33.0286426,31.3634151 C33.1192175,31.5877649 33.2917049,31.7637583 33.5149508,31.8589554 C33.68911,31.9330818 33.8824175,31.9358104 34.0582483,31.8648674 C34.2340791,31.7946822 34.3719171,31.6596175 34.4463831,31.485898 C34.4647716,31.442847 34.5127946,31.4222311 34.5567143,31.4417859 C34.5994182,31.4598249 34.6188705,31.5087877 34.6009379,31.5512323 C34.5086913,31.7664869 34.3380275,31.9330818 34.1208605,32.0200932 C33.9032376,32.1078625 33.6643386,32.1046792 33.4489953,32.0125138 C33.1847171,31.9003389 32.9803157,31.6917541 32.8730239,31.4260208 C32.7660361,31.1596811 32.7692275,30.8683295 32.8822942,30.6047184 C33.1686082,29.9350037 33.9467014,29.6224297 34.6194784,29.9083242 C35.4480261,30.2610689 35.8344892,31.2206194 35.4806999,32.047379 C35.2686999,32.5429194 34.8758541,32.92583 34.3749566,33.1268354 C34.1310426,33.2243063 33.8761867,33.2732692 33.6211788,33.2732692" id="Fill-48" fill="#9A513B"></path>
                    </g>
                    <g id="Group-6" transform="translate(0.000000, 33.126984)">
                        <g id="Path-9-+-Path-10-Mask" transform="translate(8.232412, 8.670535) rotate(-8.000000) translate(-8.232412, -8.670535) translate(1.232412, 1.670535)">
                            <path d="M5.08027668,0.377505183 C9.48791448,-0.520634111 13.8223756,2.10594323 13.8223756,6.77443153 C13.8223756,12.7748114 7.0308132,15.6105565 2.36890341,12.0943424 C-1.77525793,8.96863653 0.549591898,1.30071762 5.08027668,0.377505183 Z" id="Mask" stroke="#4B1C0F" stroke-width="0.52272" fill="#4B1C0F"></path>
                            <mask id="mask-8" fill="white">
                                <use xlink:href="#path-7"></use>
                            </mask>
                            <path stroke="#4B1C0F" stroke-width="0.52272" d="M5.08027668,0.377505183 C9.48791448,-0.520634111 13.8223756,2.10594323 13.8223756,6.77443153 C13.8223756,12.7748114 7.0308132,15.6105565 2.36890341,12.0943424 C-1.77525793,8.96863653 0.549591898,1.30071762 5.08027668,0.377505183 Z"></path>
                            <path d="M5.05280968,-0.191072559 C-1.5341409,3.08590707 -3.29345206,6.60128185 -0.225123813,10.3550518 C0.900337957,11.7319333 4.2660335,11.0544915 4.2660335,8.84305387 C4.81284233,10.897276 8.85839645,10.8677786 9.43909651,7.84081387 C10.6996683,9.91836911 13.8120905,9.74875249 13.7398553,6.10082101 C13.6724384,2.6962154 10.7767565,0.598917539 5.05280968,-0.191072559 Z" id="Path-9" fill="#D0A275" mask="url(#mask-8)"></path>
                            <path d="M6.83097243,-0.408510509 C3.72394794,1.99892884 2.96754331,5.19075001 4.56175855,9.16695299 C4.83322571,10.8809292 1.12238753,13.3496914 0.347924293,8.5747372 C-0.0307029449,4.13812927 2.1303131,1.14371336 6.83097243,-0.408510509 Z" id="Path-10" fill="#955A3A" mask="url(#mask-8)"></path>
                        </g>
                        <g id="Path-9-+-Path-10-Mask-Copy" transform="translate(37.329891, 8.833982) scale(-1, 1) rotate(-9.000000) translate(-37.329891, -8.833982) translate(29.829891, 1.833982)">
                            <path d="M5.91163487,-0.136285935 C10.3690367,-0.839405415 13.9793539,2.04491514 14.8182809,6.72834852 C15.8647404,12.5703628 7.39797548,15.385853 2.57087334,11.7450437 C-1.67373508,8.54357627 0.960376289,0.644735496 5.91163487,-0.136285935 Z" id="Mask" stroke="#4B1C0F" stroke-width="0.52272" fill="#4B1C0F"></path>
                            <mask id="mask-10" fill="white">
                                <use xlink:href="#path-9"></use>
                            </mask>
                            <path stroke="#4B1C0F" stroke-width="0.52272" d="M5.91163487,-0.136285935 C10.3690367,-0.839405415 13.9793539,2.04491514 14.8182809,6.72834852 C15.8647404,12.5703628 7.39797548,15.385853 2.57087334,11.7450437 C-1.67373508,8.54357627 0.960376289,0.644735496 5.91163487,-0.136285935 Z"></path>
                            <path d="M6.05280968,-0.191072559 C1.97491687,0.853300066 0.00263137308,4.15462884 0.135953179,9.71291375 C0.174249949,11.3095345 4.60231054,10.9904833 4.60231054,8.77904571 C5.83097139,10.6723129 8.88306048,10.4532368 9.46376054,7.42627208 C10.7243323,9.50382731 14.4901673,10.100277 14.3504999,5.75953381 C14.2121066,1.45838942 11.4462099,-0.525146041 6.05280968,-0.191072559 Z" id="Path-9" fill="#D0A275" mask="url(#mask-10)"></path>
                            <path d="M5.52779078,-0.353926178 C2.44868923,3.1325239 2.11806533,6.19042669 4.53591908,8.81978221 C5.35771612,10.432966 2.87905866,13.7183773 0.652971194,8.75731215 C-0.0883093948,4.90613012 1.53663047,1.86905067 5.52779078,-0.353926178 Z" id="Path-10" fill="#955A3A" mask="url(#mask-10)"></path>
                        </g>
                    </g>
                </g>
            </g>
        </g>
    </g>
</svg>