<?xml version="1.0" encoding="UTF-8"?>
<svg width="18px" height="18px" viewBox="0 0 18 18" version="1.1" xmlns="http://www.w3.org/2000/svg" xmlns:xlink="http://www.w3.org/1999/xlink">
    <!-- Generator: Sketch 50.2 (55047) - http://www.bohemiancoding.com/sketch -->
    <title>ic_search</title>
    <desc>Created with Sketch.</desc>
    <defs></defs>
    <g id="Page-1" stroke="none" stroke-width="1" fill="none" fill-rule="evenodd">
        <g id="切图" transform="translate(-274.000000, -49.000000)" fill="#717171">
            <path d="M291.799107,65.7544643 C291.933036,65.9017865 292,66.0758919 292,66.2767857 C292,66.4776796 291.933036,66.651785 291.799107,66.7991071 C291.651785,66.9330364 291.47768,67 291.276786,67 C291.075892,67 290.908483,66.9330364 290.774554,66.7991071 L286.636161,62.6607143 C285.203118,63.8392916 283.562509,64.4285714 281.714286,64.4285714 C279.584811,64.4285714 277.766749,63.6752307 276.260045,62.1685268 C274.753341,60.6618228 274,58.8437606 274,56.7142857 C274,54.5848108 274.753341,52.7667486 276.260045,51.2600446 C277.766749,49.7533407 279.584811,49 281.714286,49 C283.843761,49 285.661823,49.7533407 287.168527,51.2600446 C288.675231,52.7667486 289.428571,54.5848108 289.428571,56.7142857 C289.428571,58.5625092 288.839292,60.2031178 287.660714,61.6361607 L291.799107,65.7544643 Z M284.145089,62.5 C284.895093,62.1785698 285.561381,61.7265654 286.143973,61.1439732 C286.726565,60.561381 287.17857,59.895093 287.5,59.1450893 C287.82143,58.3816926 287.982143,57.5714329 287.982143,56.7142857 C287.982143,55.8571386 287.82143,55.0468788 287.5,54.2834821 C287.17857,53.5334784 286.726565,52.8671904 286.143973,52.2845982 C285.561381,51.702006 284.895093,51.2500016 284.145089,50.9285714 C283.381693,50.6071413 282.571433,50.4464286 281.714286,50.4464286 C280.857139,50.4464286 280.046879,50.6071413 279.283482,50.9285714 C278.533478,51.2500016 277.86719,51.702006 277.284598,52.2845982 C276.702006,52.8671904 276.256698,53.5334784 275.948661,54.2834821 C275.613838,55.0468788 275.446429,55.8571386 275.446429,56.7142857 C275.446429,57.5714329 275.613838,58.3816926 275.948661,59.1450893 C276.256698,59.895093 276.702006,60.561381 277.284598,61.1439732 C277.86719,61.7265654 278.533478,62.1785698 279.283482,62.5 C280.046879,62.8214302 280.857139,62.9821429 281.714286,62.9821429 C282.571433,62.9821429 283.381693,62.8214302 284.145089,62.5 Z" id="ic_search"></path>
        </g>
    </g>
</svg>