<?xml version="1.0" encoding="UTF-8"?>
<svg width="22px" height="22px" viewBox="0 0 22 22" version="1.1" xmlns="http://www.w3.org/2000/svg" xmlns:xlink="http://www.w3.org/1999/xlink">
    <!-- Generator: Sketch 50.2 (55047) - http://www.bohemiancoding.com/sketch -->
    <title>me_collection</title>
    <desc>Created with Sketch.</desc>
    <defs></defs>
    <g id="Page-1" stroke="none" stroke-width="1" fill="none" fill-rule="evenodd">
        <g id="切图" transform="translate(-365.000000, -48.000000)">
            <g id="me_collection" transform="translate(365.000000, 48.000000)">
                <rect id="Rectangle-2" x="0" y="0" width="22" height="22"></rect>
                <path d="M15.5789474,6.26041667 L14.3684211,7.04166667 L14.3684211,1 L17.7368421,1 L17.7368421,7.04166667 L16.5263158,6.26041667 L16.0526316,5.94791667 L15.5789474,6.26041667 Z M20.2631579,1 C20.7543884,1 21.166665,1.15624844 21.5,1.46875 C21.833335,1.78125156 22,2.18055313 22,2.66666667 L22,17.5625 C22,18.0486135 21.833335,18.465276 21.5,18.8125 C21.166665,19.159724 20.7543884,19.3333333 20.2631579,19.3333333 L12.7368421,19.3333333 C11.8596447,19.3333333 11.4210526,19.6631911 11.4210526,20.3229167 L11.4210526,21 L10.5789474,21 L10.5789474,20.3229167 C10.5789474,19.6631911 10.1403553,19.3333333 9.26315789,19.3333333 L1.73684211,19.3333333 C1.24561158,19.3333333 0.833335,19.159724 0.5,18.8125 C0.166665,18.465276 0,18.0486135 0,17.5625 L0,2.66666667 C0,2.18055313 0.166665,1.78125156 0.5,1.46875 C0.833335,1.15624844 1.24561158,1 1.73684211,1 L9.63157895,1 C9.84210632,1 10.0526305,1.08680469 10.2631579,1.26041667 C10.4736853,1.43402865 10.5789474,1.60763802 10.5789474,1.78125 L10.5789474,18.9166667 L11,19.2291667 L11.4210526,18.9166667 L11.4210526,1.78125 C11.4210526,1.57291563 11.5263147,1.39062578 11.7368421,1.234375 C11.9473695,1.07812422 12.1578937,1 12.3684211,1 L13.5263158,1 L13.5263158,8.60416667 L16.0526316,6.9375 L18.5789474,8.60416667 L18.5789474,1 L20.2631579,1 Z" id="ion-ios-bookmarks---Ionicons" fill="#414141"></path>
            </g>
        </g>
    </g>
</svg>