<?xml version="1.0" encoding="UTF-8"?>
<svg width="22px" height="22px" viewBox="0 0 22 22" version="1.1" xmlns="http://www.w3.org/2000/svg" xmlns:xlink="http://www.w3.org/1999/xlink">
    <!-- Generator: Sketch 50.2 (55047) - http://www.bohemiancoding.com/sketch -->
    <title>me_message</title>
    <desc>Created with Sketch.</desc>
    <defs></defs>
    <g id="Page-1" stroke="none" stroke-width="1" fill="none" fill-rule="evenodd">
        <g id="切图" transform="translate(-474.000000, -48.000000)">
            <g id="me_message" transform="translate(474.000000, 48.000000)">
                <rect id="Rectangle-2-Copy-2" x="0" y="0" width="22" height="22"></rect>
                <path d="M19.8317308,0 C20.4310927,0 20.9423056,0.211536346 21.3653846,0.634615385 C21.7884637,1.05769442 22,1.56890726 22,2.16826923 L22,15.3894231 C22,15.988785 21.7884637,16.5088119 21.3653846,16.9495192 C20.9423056,17.3902266 20.4310927,17.6105769 19.8317308,17.6105769 L4.38942308,17.6105769 L0,22 L0,2.16826923 C0,1.56890726 0.211536346,1.05769442 0.634615385,0.634615385 C1.05769442,0.211536346 1.56890726,0 2.16826923,0 L19.8317308,0 Z M17.6105769,6.61057692 L17.6105769,5.38942308 L4.38942308,5.38942308 L4.38942308,6.61057692 L17.6105769,6.61057692 Z M17.6105769,9.91586538 L17.6105769,8.69471154 L4.38942308,8.69471154 L4.38942308,9.91586538 L17.6105769,9.91586538 Z M17.6105769,13.2211538 L17.6105769,12 L4.38942308,12 L4.38942308,13.2211538 L17.6105769,13.2211538 Z" id="Combined-Shape" fill="#282828"></path>
            </g>
        </g>
    </g>
</svg>