<?xml version="1.0" encoding="UTF-8"?>
<svg width="335px" height="119px" viewBox="0 0 335 119" version="1.1" xmlns="http://www.w3.org/2000/svg" xmlns:xlink="http://www.w3.org/1999/xlink">
    <!-- Generator: Sketch 51.3 (57544) - http://www.bohemiancoding.com/sketch -->
    <title>在读</title>
    <desc>Created with Sketch.</desc>
    <defs>
        <linearGradient x1="98.9043281%" y1="5.28123305%" x2="1.7287429%" y2="94.7239655%" id="linearGradient-1">
            <stop stop-color="#393848" offset="0%"></stop>
            <stop stop-color="#46485A" offset="100%"></stop>
        </linearGradient>
        <linearGradient x1="50%" y1="50%" x2="50%" y2="3.061617e-15%" id="linearGradient-2">
            <stop stop-color="#333232" offset="0%"></stop>
            <stop stop-color="#161314" offset="100%"></stop>
        </linearGradient>
        <linearGradient x1="50%" y1="61.7397478%" x2="50%" y2="15.6566021%" id="linearGradient-3">
            <stop stop-color="#333232" offset="0%"></stop>
            <stop stop-color="#161314" offset="100%"></stop>
        </linearGradient>
        <linearGradient x1="50%" y1="72.4304488%" x2="50%" y2="3.061617e-15%" id="linearGradient-4">
            <stop stop-color="#414141" offset="0%"></stop>
            <stop stop-color="#161314" offset="100%"></stop>
        </linearGradient>
    </defs>
    <g id="2018年12月05日" stroke="none" stroke-width="1" fill="none" fill-rule="evenodd">
        <g id="职业认证-step1" transform="translate(-20.000000, -383.000000)">
            <g id="在读" transform="translate(20.000000, 383.000000)">
                <g id="Path-2">
                    <rect id="Mask" fill="url(#linearGradient-1)" fill-rule="nonzero" x="0" y="0" width="335" height="119" rx="10"></rect>
                    <path d="M174.991967,4.4408921e-16 C160.440546,28.0676642 102.10989,47.7334501 -3.99680289e-15,58.9973579 L0,10 C-6.76353751e-16,4.4771525 4.4771525,8.11995798e-15 10,7.10542736e-15 L174.991967,0 Z" id="Combined-Shape" fill="url(#linearGradient-1)" fill-rule="nonzero"></path>
                    <path d="M335,22.1617421 L335,109 C335,114.522847 330.522847,119 325,119 L99.6342948,119 C145.59911,46.3171861 224.054345,14.0377668 335,22.1617421 Z" id="Combined-Shape" fill="url(#linearGradient-1)" fill-rule="nonzero"></path>
                    <polygon id="ion-ios-arrow-forward---Ionicons" fill="#FFFFFF" points="312 52.75 313.75 51 322.5 59.75 313.75 68.5 312 66.75 318.945312 59.75"></polygon>
                </g>
                <text font-family="SourceHanSansSC-Medium, Source Han Sans SC" font-size="20" font-weight="400" fill="#FFFFFF">
                    <tspan x="20" y="47">在读</tspan>
                </text>
                <rect id="Rectangle" fill="#FFFFFF" fill-rule="nonzero" x="21" y="85" width="24" height="3"></rect>
                <circle id="Oval" fill="#FFFFFF" fill-rule="nonzero" cx="254" cy="60" r="41"></circle>
                <g id="Group-41" transform="translate(224.000000, 39.000000)" fill-rule="nonzero">
                    <polygon id="Rectangle-48" fill="url(#linearGradient-2)" points="53.0232558 14.9411765 54.4186047 14.9411765 54.4186047 24 53.0232558 24"></polygon>
                    <rect id="Rectangle-49" fill="#EB2835" x="51.627907" y="24" width="4.18604651" height="11.2941176"></rect>
                    <path d="M9.76744186,14.1176471 L48.8372093,14.1176471 L48.8372093,38.7647059 C44.4835533,42.6662956 37.9719254,44.6170905 29.3023256,44.6170905 C20.6327258,44.6170905 14.1210979,42.6662956 9.76744186,38.7647059 L9.76744186,14.1176471 Z" id="Rectangle-47" fill="url(#linearGradient-3)"></path>
                    <polygon id="Path-23" fill="url(#linearGradient-4)" points="0.0420203287 14.2350385 29.3379715 0.50101139 59.3096754 14.2350385 29.3379715 26.117371"></polygon>
                </g>
                <text id="students" opacity="0.600000024" font-family="SourceHanSansSC-Medium, Source Han Sans SC" font-size="15" font-weight="400" fill="#FFFFFF">
                    <tspan x="20" y="70">students</tspan>
                </text>
            </g>
        </g>
    </g>
</svg>