<?xml version="1.0" encoding="UTF-8"?>
<svg width="335px" height="119px" viewBox="0 0 335 119" version="1.1" xmlns="http://www.w3.org/2000/svg" xmlns:xlink="http://www.w3.org/1999/xlink">
    <!-- Generator: Sketch 51.3 (57544) - http://www.bohemiancoding.com/sketch -->
    <title>在读</title>
    <desc>Created with Sketch.</desc>
    <defs>
        <linearGradient x1="98.9043281%" y1="5.28123305%" x2="1.7287429%" y2="94.7239655%" id="linearGradient-1">
            <stop stop-color="#393848" offset="0%"></stop>
            <stop stop-color="#46485A" offset="100%"></stop>
        </linearGradient>
        <linearGradient x1="50%" y1="50%" x2="50%" y2="3.061617e-15%" id="linearGradient-2">
            <stop stop-color="#333232" offset="0%"></stop>
            <stop stop-color="#161314" offset="100%"></stop>
        </linearGradient>
        <linearGradient x1="50%" y1="61.7397478%" x2="50%" y2="15.6566021%" id="linearGradient-3">
            <stop stop-color="#333232" offset="0%"></stop>
            <stop stop-color="#161314" offset="100%"></stop>
        </linearGradient>
        <linearGradient x1="50%" y1="72.4304488%" x2="50%" y2="3.061617e-15%" id="linearGradient-4">
            <stop stop-color="#414141" offset="0%"></stop>
            <stop stop-color="#161314" offset="100%"></stop>
        </linearGradient>
    </defs>
    <g id="表单" stroke="none" stroke-width="1" fill="none" fill-rule="evenodd">
        <g id="职业认证-step1" transform="translate(-20.000000, -383.000000)">
            <g id="在读" transform="translate(20.000000, 383.000000)">
                <g id="Path-2">
                    <rect id="Mask" fill="url(#linearGradient-1)" fill-rule="nonzero" x="0" y="0" width="335" height="119" rx="10"></rect>
                    <path d="M174.991967,4.4408921e-16 C160.440546,28.0676642 102.10989,47.7334501 -3.99680289e-15,58.9973579 L0,10 C-6.76353751e-16,4.4771525 4.4771525,8.11995798e-15 10,7.10542736e-15 L174.991967,0 Z" id="Combined-Shape" fill="url(#linearGradient-1)" fill-rule="nonzero"></path>
                    <path d="M335,22.1617421 L335,109 C335,114.522847 330.522847,119 325,119 L99.6342948,119 C145.59911,46.3171861 224.054345,14.0377668 335,22.1617421 Z" id="Combined-Shape" fill="url(#linearGradient-1)" fill-rule="nonzero"></path>
                    <polygon id="ion-ios-arrow-forward---Ionicons" fill="#FFFFFF" points="312 52.75 313.75 51 322.5 59.75 313.75 68.5 312 66.75 318.945312 59.75"></polygon>
                </g>
                <path d="M32.96,46 L32.96,51.16 L37.98,51.16 L37.98,52.9 L26.04,52.9 L26.04,51.16 L31.08,51.16 L31.08,46 L26.8,46 L26.8,44.28 L31.08,44.28 L31.08,40.68 L32.96,40.68 L32.96,44.28 L37.22,44.28 L37.22,46 L32.96,46 Z M28,37.94 L38,37.94 L38,39.72 L27.24,39.72 C26.56,41.14 25.78,42.5 24.86,43.74 L24.86,53.34 L23,53.34 L23,45.9 C22.36,46.52 21.66,47.12 20.92,47.64 C20.72,47.14 20.3,46.34 20,45.9 C22.2,44.4 23.9,42.16 25.14,39.72 L20.54,39.72 L20.54,37.94 L25.94,37.94 C26.36,36.96 26.66,35.98 26.92,35 L28.86,35.48 C28.6,36.3 28.32,37.12 28,37.94 Z M56.68,44.02 L55.24,43.68 C55.48,43.08 55.74,42.26 55.98,41.44 L46.56,41.44 L46.56,39.86 L51.28,39.86 L51.28,38.3 L47.26,38.3 L47.26,36.74 L51.28,36.74 L51.28,35.04 L53.1,35.04 L53.1,36.74 L57.14,36.74 L57.14,38.3 L53.1,38.3 L53.1,39.86 L56.56,39.86 L56.86,39.8 L58.02,40.08 C57.64,41.46 57.14,43.02 56.68,44.02 Z M51.74,43.84 L50.88,44.86 C50.28,44.26 49.02,43.42 48,42.9 L48.82,41.98 C49.82,42.48 51.08,43.26 51.74,43.84 Z M45.62,38.3 L44.36,39.66 C43.72,38.82 42.32,37.52 41.24,36.6 L42.42,35.4 C43.5,36.26 44.94,37.48 45.62,38.3 Z M58.12,48.2 L52.94,48.2 C52.16,50.14 50.46,52.08 46.9,53.5 C46.72,53.06 46.18,52.4 45.8,52.04 C48.6,50.98 50.1,49.62 50.9,48.2 L46.16,48.2 C46.34,48.68 46.6,49.22 46.78,49.52 C43.64,52.16 43.12,52.66 42.82,53.1 C42.64,52.72 42.16,52.1 41.88,51.82 C42.26,51.52 42.82,50.82 42.82,49.82 L42.82,42.96 L40.12,42.96 L40.12,41.18 L44.52,41.18 L44.52,49.2 L46.06,47.94 L46.14,48.16 L46.14,46.6 L49.36,46.6 C48.68,46 47.52,45.18 46.56,44.66 L47.4,43.7 C48.44,44.24 49.72,45.06 50.36,45.7 L49.6,46.6 L51.54,46.6 C51.76,45.82 51.8,45.04 51.8,44.34 L51.8,42.1 L53.58,42.1 L53.58,44.38 C53.58,45.08 53.54,45.84 53.4,46.6 L58.12,46.6 L58.12,48.2 Z M52.82,49.76 L53.92,48.7 C55.5,49.7 57.5,51.2 58.46,52.26 L57.28,53.46 C56.36,52.42 54.42,50.82 52.82,49.76 Z" fill="#FFFFFF"></path>
                <rect id="Rectangle" fill="#FFFFFF" fill-rule="nonzero" x="20" y="85" width="24" height="3"></rect>
                <circle id="Oval" fill="#FFFFFF" fill-rule="nonzero" cx="254" cy="60" r="41"></circle>
                <g id="Group-41" transform="translate(224.000000, 39.000000)" fill-rule="nonzero">
                    <polygon id="Rectangle-48" fill="url(#linearGradient-2)" points="53.0232558 14.9411765 54.4186047 14.9411765 54.4186047 24 53.0232558 24"></polygon>
                    <rect id="Rectangle-49" fill="#EB2835" x="51.627907" y="24" width="4.18604651" height="11.2941176"></rect>
                    <path d="M9.76744186,14.1176471 L48.8372093,14.1176471 L48.8372093,38.7647059 C44.4835533,42.6662956 37.9719254,44.6170905 29.3023256,44.6170905 C20.6327258,44.6170905 14.1210979,42.6662956 9.76744186,38.7647059 L9.76744186,14.1176471 Z" id="Rectangle-47" fill="url(#linearGradient-3)"></path>
                    <polygon id="Path-23" fill="url(#linearGradient-4)" points="0.0420203287 14.2350385 29.3379715 0.50101139 59.3096754 14.2350385 29.3379715 26.117371"></polygon>
                </g>
                <path d="M23.105,71.15 C21.965,71.15 20.795,70.67 20,70.01 L20.81,68.9 C21.545,69.485 22.265,69.845 23.15,69.845 C24.14,69.845 24.605,69.365 24.605,68.735 C24.605,67.985 23.675,67.655 22.775,67.31 C21.68,66.89 20.42,66.305 20.42,64.91 C20.42,63.53 21.53,62.495 23.345,62.495 C24.455,62.495 25.355,62.945 26.03,63.47 L25.22,64.535 C24.65,64.115 24.065,63.815 23.375,63.815 C22.475,63.815 22.055,64.265 22.055,64.835 C22.055,65.54 22.91,65.81 23.81,66.14 C24.965,66.575 26.24,67.085 26.24,68.645 C26.24,70.025 25.145,71.15 23.105,71.15 Z M30.845,71.15 C28.985,71.15 28.34,69.995 28.34,68.255 L28.34,64.085 L27.14,64.085 L27.14,62.795 L28.415,62.705 L28.61,60.425 L30.065,60.425 L30.065,62.705 L32.21,62.705 L32.21,64.085 L30.065,64.085 L30.065,68.27 C30.065,69.26 30.41,69.77 31.265,69.77 C31.55,69.77 31.91,69.68 32.15,69.575 L32.465,70.85 C32,71 31.445,71.15 30.845,71.15 Z M36.425,71.15 C34.67,71.15 33.905,69.995 33.905,67.895 L33.905,62.705 L35.63,62.705 L35.63,67.685 C35.63,69.11 36.035,69.665 37.01,69.665 C37.775,69.665 38.3,69.305 38.99,68.435 L38.99,62.705 L40.715,62.705 L40.715,70.955 L39.305,70.955 L39.17,69.71 L39.125,69.71 C38.375,70.58 37.565,71.15 36.425,71.15 Z M46.16,71.15 C44.09,71.15 42.755,69.575 42.755,66.845 C42.755,64.16 44.45,62.495 46.295,62.495 C47.24,62.495 47.84,62.855 48.515,63.425 L48.44,62.06 L48.44,59 L50.165,59 L50.165,70.955 L48.755,70.955 L48.605,70.025 L48.56,70.025 C47.945,70.655 47.09,71.15 46.16,71.15 Z M46.565,69.725 C47.255,69.725 47.84,69.41 48.44,68.72 L48.44,64.685 C47.825,64.13 47.24,63.935 46.625,63.935 C45.47,63.935 44.54,65.03 44.54,66.815 C44.54,68.69 45.275,69.725 46.565,69.725 Z M56.195,71.15 C53.96,71.15 52.175,69.56 52.175,66.845 C52.175,64.16 54.005,62.495 55.94,62.495 C58.13,62.495 59.3,64.07 59.3,66.41 C59.3,66.74 59.27,67.085 59.225,67.28 L53.87,67.28 C54.005,68.855 54.995,69.8 56.42,69.8 C57.155,69.8 57.785,69.575 58.385,69.185 L58.985,70.28 C58.22,70.79 57.275,71.15 56.195,71.15 Z M53.855,66.095 L57.815,66.095 C57.815,64.67 57.17,63.845 55.97,63.845 C54.935,63.845 54.02,64.64 53.855,66.095 Z M61.235,70.955 L61.235,62.705 L62.645,62.705 L62.78,63.845 L62.825,63.845 C63.59,63.11 64.43,62.495 65.555,62.495 C67.31,62.495 68.09,63.665 68.09,65.765 L68.09,70.955 L66.365,70.955 L66.365,65.975 C66.365,64.55 65.945,63.98 64.97,63.98 C64.205,63.98 63.68,64.37 62.945,65.105 L62.945,70.955 L61.235,70.955 Z M73.37,71.15 C71.51,71.15 70.865,69.995 70.865,68.255 L70.865,64.085 L69.665,64.085 L69.665,62.795 L70.94,62.705 L71.135,60.425 L72.59,60.425 L72.59,62.705 L74.735,62.705 L74.735,64.085 L72.59,64.085 L72.59,68.27 C72.59,69.26 72.935,69.77 73.79,69.77 C74.075,69.77 74.435,69.68 74.675,69.575 L74.99,70.85 C74.525,71 73.97,71.15 73.37,71.15 Z M78.77,71.15 C77.63,71.15 76.46,70.67 75.665,70.01 L76.475,68.9 C77.21,69.485 77.93,69.845 78.815,69.845 C79.805,69.845 80.27,69.365 80.27,68.735 C80.27,67.985 79.34,67.655 78.44,67.31 C77.345,66.89 76.085,66.305 76.085,64.91 C76.085,63.53 77.195,62.495 79.01,62.495 C80.12,62.495 81.02,62.945 81.695,63.47 L80.885,64.535 C80.315,64.115 79.73,63.815 79.04,63.815 C78.14,63.815 77.72,64.265 77.72,64.835 C77.72,65.54 78.575,65.81 79.475,66.14 C80.63,66.575 81.905,67.085 81.905,68.645 C81.905,70.025 80.81,71.15 78.77,71.15 Z" id="students" fill="#FFFFFF" opacity="0.600000024"></path>
            </g>
        </g>
    </g>
</svg>