<?xml version="1.0" encoding="UTF-8"?>
<svg width="64px" height="15px" viewBox="0 0 64 15" version="1.1" xmlns="http://www.w3.org/2000/svg" xmlns:xlink="http://www.w3.org/1999/xlink">
    <!-- Generator: Sketch 51.3 (57544) - http://www.bohemiancoding.com/sketch -->
    <title>每日精选@1.5x</title>
    <desc>Created with Sketch.</desc>
    <defs></defs>
    <g id="Page-1" stroke="none" stroke-width="1" fill="none" fill-rule="evenodd">
        <g id="小程序-机器之心早报2018年10月10日" transform="translate(-49.000000, -774.000000)" fill="#282828">
            <g id="Group-24" transform="translate(28.000000, 758.000000)">
                <path d="M23.8125,26.25 L24.125,24.1875 L21.5,24.1875 L21.5,23.8125 L24.1875,23.8125 L24.4375,22.0625 C24.5208338,21.5208306 24.5625,20.9375031 24.5625,20.3125 C23.9374969,20.9375031 23.2291706,21.5208306 22.4375,22.0625 L22.1875,21.875 C23.6458406,19.9166569 24.5833313,18.0208425 25,16.1875 L27.125,16.6875 C27.2916675,16.7291669 27.375,16.8124994 27.375,16.9375 C27.375,17.1875013 27.1666687,17.3333331 26.75,17.375 C26.6666662,17.5000006 26.5625006,17.6458325 26.4375,17.8125 C26.3958331,17.9375006 26.3541669,18.0208331 26.3125,18.0625 L32.625,18.0625 L33.625,16.6875 L35.4375,18 C35.5208338,18.0416669 35.5625,18.1041662 35.5625,18.1875 C35.5625,18.3541675 35.4375012,18.4375 35.1875,18.4375 L26.0625,18.4375 C25.9791662,18.5625006 25.8333344,18.7499987 25.625,19 C25.3333319,19.4166687 25.1041675,19.7083325 24.9375,19.875 L26.625,20.3125 L31.8125,20.3125 L32.375,19.3125 L34.1875,20.0625 C34.3958344,20.1041669 34.5,20.2083325 34.5,20.375 C34.5,20.5833344 34.2708356,20.8124987 33.8125,21.0625 C33.8125,21.9375044 33.7916669,22.8541619 33.75,23.8125 L34.3125,23.8125 L35.1875,22.625 L36.6875,23.75 C36.8125006,23.7916669 36.8541669,23.8541662 36.8125,23.9375 C36.8125,24.0625006 36.6666681,24.1458331 36.375,24.1875 L33.75,24.1875 C33.75,24.520835 33.7291669,25.0416631 33.6875,25.75 C33.6875,26.4583369 33.6666669,26.979165 33.625,27.3125 L33.875,27.3125 L34.75,26.1875 L36.1875,27.25 C36.3125006,27.2916669 36.375,27.3541662 36.375,27.4375 C36.375,27.5625006 36.2291681,27.6458331 35.9375,27.6875 L33.625,27.6875 C33.5833331,27.7708338 33.5625,27.8749994 33.5625,28 C33.6041669,29.5000075 32.6875094,30.3333325 30.8125,30.5 C30.8541669,29.7499963 30.1666738,29.2500013 28.75,29 L28.8125,28.8125 L30.75,28.875 C31.4583369,28.9583338 31.8333331,28.5833375 31.875,27.75 L31.875,27.6875 L25.625,27.6875 L24.9375,28.5 C24.3124969,28.2083319 23.7500025,27.8541687 23.25,27.4375 C23.0833325,27.3124994 23.0833325,27.1666675 23.25,27 C23.583335,26.8333325 23.7708331,26.583335 23.8125,26.25 Z M31.875,27.3125 L31.875,27.125 C31.9583338,26.2083287 32,25.2291719 32,24.1875 L25.8125,24.1875 L25.375,27.3125 L31.875,27.3125 Z M32.125,20.6875 L26.25,20.6875 L25.875,23.8125 L32,23.8125 C32.0416669,23.479165 32.0625,22.9583369 32.0625,22.25 C32.1041669,21.58333 32.125,21.0625019 32.125,20.6875 Z M27.5,21.1875 L27.625,21 C29.291675,21.1666675 30.125,21.6458294 30.125,22.4375 C30.0833331,23.10417 29.72917,23.4583331 29.0625,23.5 C28.7708319,23.5 28.5833338,23.3541681 28.5,23.0625 C28.2916656,22.3124963 27.9583356,21.6875025 27.5,21.1875 Z M27.375,24.6875 L27.5,24.5 C29.1250081,24.6666675 29.9375,25.1666625 29.9375,26 C29.8958331,26.66667 29.54167,27.0208331 28.875,27.0625 C28.6249987,27.0625 28.4375006,26.895835 28.3125,26.5625 C28.1874994,25.89583 27.8750025,25.2708363 27.375,24.6875 Z M48.3125,30.25 L48.3125,29 L41.75,29 L41.75,29.6875 C41.8333338,30.020835 41.708335,30.2083331 41.375,30.25 C40.8333306,30.3750006 40.3125025,30.4375 39.8125,30.4375 C39.8958338,28.104155 39.9375,25.770845 39.9375,23.4375 L39.9375,20.75 C39.9375,20.416665 39.9166669,19.7083387 39.875,18.625 L39.875,16.9375 L42.25,17.5625 L47.9375,17.5625 L48.5625,16.5 L50.5625,17.25 C50.7291675,17.3333338 50.8125,17.4374994 50.8125,17.5625 C50.8125,17.8541681 50.6041687,18.1249987 50.1875,18.375 L50.1875,23.1875 C50.1875,26.4791831 50.2083331,28.5833287 50.25,29.5 C50.25,29.8750019 50.1250012,30.0833331 49.875,30.125 C49.4999981,30.2083338 48.97917,30.25 48.3125,30.25 Z M41.75,23.375 L41.75,28.625 L48.3125,28.625 L48.3125,23.375 L41.75,23.375 Z M48.3125,18 L41.75,18 L41.75,23 L48.3125,23 L48.3125,18 Z M58.3125,26.125 C58.2291663,25.2499956 58.0000019,24.5208363 57.625,23.9375 L57.625,29.8125 C57.6666669,30.1041681 57.5625012,30.2708331 57.3125,30.3125 C56.8541644,30.4375006 56.4375019,30.5 56.0625,30.5 C56.0625,29.83333 56.0833331,28.8750062 56.125,27.625 L56.125,25.5 C55.5833306,26.7083394 54.7500056,27.812495 53.625,28.8125 L53.375,28.625 C54.5000056,26.5416562 55.3124975,24.4375106 55.8125,22.3125 L53.5625,22.3125 L53.5625,21.9375 L56.125,21.9375 L56.125,19.0625 C56.125,17.8124938 56.1041669,16.85417 56.0625,16.1875 L58.0625,16.375 C58.1875006,16.4166669 58.25,16.4791662 58.25,16.5625 C58.25,16.8125013 58.0416687,16.9999994 57.625,17.125 L57.625,20.6875 C58.0833356,19.7291619 58.4374988,18.7708381 58.6875,17.8125 L59.9375,18.3125 L59.9375,18 L62.8125,18 C62.8125,17.2916631 62.7916669,16.6666694 62.75,16.125 L64.8125,16.3125 C64.9791675,16.3541669 65.0625,16.4166662 65.0625,16.5 C65.0625,16.7500013 64.8541687,16.9374994 64.4375,17.0625 L64.4375,18 L65.8125,18 L66.6875,16.875 L68.125,17.9375 C68.2500006,17.9791669 68.2916669,18.0416662 68.25,18.125 C68.25,18.2500006 68.1250012,18.3333331 67.875,18.375 L64.4375,18.375 L64.4375,19.8125 L65.375,19.8125 L66.25,18.6875 L67.6875,19.75 C67.8125006,19.7916669 67.8541669,19.8749994 67.8125,20 C67.8125,20.1250006 67.6875012,20.1875 67.4375,20.1875 L64.4375,20.1875 L64.4375,21.875 L66.25,21.875 L67.125,20.6875 L68.625,21.8125 C68.7500006,21.8541669 68.7916669,21.9166662 68.75,22 C68.75,22.1250006 68.6041681,22.2083331 68.3125,22.25 L59.9375,22.25 C59.8541662,22.2916669 59.7916669,22.3125 59.75,22.3125 L57.625,22.3125 L57.625,23.4375 C59.0833406,23.9791694 59.8125,24.6874956 59.8125,25.5625 C59.7708331,26.22917 59.4375031,26.5833331 58.8125,26.625 C58.5208319,26.625 58.3541669,26.458335 58.3125,26.125 Z M60.375,30.5 C60.4166669,29.4166613 60.4375,28.2916725 60.4375,27.125 L60.4375,25.375 C60.4375,24.6249963 60.4166669,23.7916713 60.375,22.875 L62.375,23.375 L65.3125,23.375 L65.875,22.4375 L67.5,23.0625 C67.6666675,23.1458338 67.75,23.2499994 67.75,23.375 C67.75,23.5833344 67.5625019,23.8124987 67.1875,24.0625 L67.1875,25.625 C67.1875,26.6666719 67.2083331,27.7291613 67.25,28.8125 C67.25,29.7708381 66.5000075,30.3333325 65,30.5 C65.1250006,29.7916631 64.52084,29.3333344 63.1875,29.125 L63.1875,28.875 L64.6875,28.9375 C65.3125031,28.9791669 65.6041669,28.7500025 65.5625,28.25 L65.5625,27.375 L62,27.375 L62,29.75 C62.0416669,30.083335 61.9375012,30.2708331 61.6875,30.3125 C61.2708313,30.4375006 60.8333356,30.5 60.375,30.5 Z M58.375,21.9375 L58.9375,21 L60,21.875 L62.8125,21.875 L62.8125,20.1875 L60.3125,20.1875 L60.3125,19.8125 L62.8125,19.8125 L62.8125,18.375 L60,18.375 L60.25,18.5 C60.3750006,18.5416669 60.4375,18.6249994 60.4375,18.75 C60.4375,18.9583344 60.2291687,19.0625 59.8125,19.0625 C59.3958313,19.6041694 58.6666719,20.3541619 57.625,21.3125 L57.625,21.9375 L58.375,21.9375 Z M65.5625,23.75 L62,23.75 L62,25.1875 L65.5625,25.1875 L65.5625,23.75 Z M62,25.5625 L62,26.9375 L65.5625,26.9375 L65.5625,25.5625 L62,25.5625 Z M54.5625,20.625 C54.4791662,19.7499956 54.2083356,18.8541713 53.75,17.9375 L53.875,17.8125 C55.20834,18.5625037 55.875,19.3333294 55.875,20.125 C55.875,20.79167 55.5833363,21.125 55,21.125 C54.7499988,21.125 54.6041669,20.958335 54.5625,20.625 Z M73.8125,27.625 C75.479175,26.3333269 76.3541662,24.6458438 76.4375,22.5625 L74,22.5625 L74,22.1875 L77.9375,22.1875 L77.9375,19.5 L76.0625,19.5 C75.6874981,20.3333375 75.1458369,21.0624969 74.4375,21.6875 L74.125,21.5 C74.79167,19.8749919 75.1666663,18.3333406 75.25,16.875 L77.1875,17.25 C77.3541675,17.25 77.4375,17.3124994 77.4375,17.4375 C77.3958331,17.7291681 77.1666687,17.875 76.75,17.875 C76.6249994,18.3333356 76.4583344,18.7499981 76.25,19.125 L77.9375,19.125 L77.9375,18.8125 C77.9375,18.479165 77.9166669,18.0208362 77.875,17.4375 L77.875,16.1875 L79.9375,16.375 C80.0625006,16.375 80.125,16.4374994 80.125,16.5625 C80.1666669,16.7708344 79.9583356,16.9583325 79.5,17.125 L79.5,19.125 L80.6875,19.125 L81.5625,18 L83,19.0625 C83.1250006,19.1041669 83.1666669,19.1666662 83.125,19.25 C83.125,19.3750006 83.0000012,19.4583331 82.75,19.5 L79.5,19.5 L79.5,22.1875 L81.4375,22.1875 L82.375,21 L83.9375,22.125 C84.0208338,22.1666669 84.0625,22.2291662 84.0625,22.3125 C84.0625,22.4375006 83.9166681,22.5208331 83.625,22.5625 L81.0625,22.5625 L81.0625,25.3125 C81.0208331,25.7291687 81.2083313,25.9166669 81.625,25.875 L82,25.875 C82.3750019,25.875 82.6249994,25.6666687 82.75,25.25 L83.3125,23.5 L83.625,23.5625 L83.6875,25.0625 C83.6875,25.2708344 83.7916656,25.4791656 84,25.6875 C84.2083344,25.8958344 84.3125,26.1041656 84.3125,26.3125 C84.1874994,26.97917 83.4791731,27.3333331 82.1875,27.375 L80.8125,27.375 C79.8541619,27.4166669 79.3958331,26.8958387 79.4375,25.8125 L79.4375,22.5625 L78.0625,22.5625 C78.0625,25.3958475 76.7083469,27.1874962 74,27.9375 L73.8125,27.625 Z M70.875,29.5 C70.9583338,30.0416694 70.8541681,30.3333331 70.5625,30.375 C70.4791662,30.375 70.3750006,30.2916675 70.25,30.125 L69.25,28.25 C69.91667,28.1249994 70.6249963,27.8541687 71.375,27.4375 L71.375,22.75 L69.5,22.75 L69.5,22.375 L71,22.375 L71.5625,21.375 L73.3125,22.0625 C73.4791675,22.1041669 73.5625,22.2291656 73.5625,22.4375 C73.5625,22.6458344 73.3541687,22.8749987 72.9375,23.125 L72.9375,26.8125 C72.8124994,27.8958387 74.41665,28.4166669 77.75,28.375 C80.2083456,28.375 82.4999894,28.2500013 84.625,28 L84.625,28.3125 C84.1666644,28.4791675 83.8333344,28.9999956 83.625,29.875 C82.29166,29.9583338 80.62501,30 78.625,30 C75.1249825,30.1250006 73.0833363,29.354175 72.5,27.6875 C71.83333,28.6041713 71.2916687,29.2083319 70.875,29.5 Z M71.5625,19.4375 C71.3958325,18.5208287 71.0000031,17.6041713 70.375,16.6875 L70.5,16.5 C72.5416769,17.2083369 73.5208337,17.9791625 73.4375,18.8125 C73.3958331,19.5625037 73.0000037,19.9791662 72.25,20.0625 C71.916665,20.0625 71.6875006,19.8541687 71.5625,19.4375 Z" id="每日精选"></path>
            </g>
        </g>
    </g>
</svg>