<?xml version="1.0" encoding="UTF-8"?>
<svg width="120px" height="45px" viewBox="0 0 120 45" version="1.1" xmlns="http://www.w3.org/2000/svg" xmlns:xlink="http://www.w3.org/1999/xlink">
    <!-- Generator: Sketch 50.2 (55047) - http://www.bohemiancoding.com/sketch -->
    <title>logo</title>
    <desc>Created with Sketch.</desc>
    <defs>
        <polygon id="path-1" points="0 45 119.886599 45 119.886599 0.274090909 0 0.274090909"></polygon>
    </defs>
    <g id="Page-1" stroke="none" stroke-width="1" fill="none" fill-rule="evenodd">
        <g id="index" transform="translate(-128.000000, -131.000000)">
            <g id="logo" transform="translate(128.000000, 131.000000)">
                <polygon id="Fill-1" fill="#595757" points="0 6.46046319 6.05769231 16.0714286 4.02165673 5.55194805"></polygon>
                <polygon id="Fill-2" fill="#3F3A3A" points="5.79849044 3.21428571 4.03846154 5.49376772 6.05769231 16.0714286"></polygon>
                <polygon id="Fill-3" fill="#888889" points="0 6.42857143 4.00163104 5.50881542 5.76923077 3.21428571"></polygon>
                <g id="Group-26">
                    <path d="M9.048035,10.5891818 C8.29521845,10.5891818 7.68927096,11.2069091 7.68927096,11.9705455 C7.68927096,12.7300909 8.29521845,13.3500909 9.048035,13.3500909 C9.79859896,13.3500909 10.4108537,12.7300909 10.4108537,11.9705455 C10.4108537,11.2069091 9.79859896,10.5891818 9.048035,10.5891818" id="Fill-4" fill="#595757"></path>
                    <mask id="mask-2" fill="white">
                        <use xlink:href="#path-1"></use>
                    </mask>
                    <g id="Clip-7"></g>
                    <polygon id="Fill-6" fill="#595757" mask="url(#mask-2)" points="7.89668971 22.3686364 13.7597385 22.3686364 13.7597385 16.0563636 7.89668971 16.0563636"></polygon>
                    <polygon id="Fill-8" fill="#3F3A3A" mask="url(#mask-2)" points="13.6452167 0.274045455 17.5440045 4.17313636 20.2754987 2.27086364"></polygon>
                    <polygon id="Fill-9" fill="#888889" mask="url(#mask-2)" points="17.5155318 4.12436364 14.2168347 14.888 20.2754086 2.27072727"></polygon>
                    <polygon id="Fill-10" fill="#595757" mask="url(#mask-2)" points="13.6452167 0.274045455 14.2169248 14.8881364 17.5156219 4.1245"></polygon>
                    <polygon id="Fill-11" fill="#3F3A3A" mask="url(#mask-2)" points="0.109385912 42.5802727 4.18793064 44.0161818 8.05833578 23.5361818"></polygon>
                    <polygon id="Fill-12" fill="#595757" mask="url(#mask-2)" points="8.05815557 23.5361818 4.18775043 44.0161818 9.67506677 43.5761818"></polygon>
                    <polygon id="Fill-13" fill="#595757" mask="url(#mask-2)" points="14.7019982 23.8535909 14.9421246 38.2008636 20.5645965 38.4967727"></polygon>
                    <polygon id="Fill-14" fill="#3F3A3A" mask="url(#mask-2)" points="14.7019982 23.8535909 20.5645965 38.4967727 23.8128355 36.7222273"></polygon>
                    <path d="M14.8656265,43.6842273 L15.2850593,43.1660455 C15.5049124,43.3542273 15.7923432,43.4855909 16.0365243,43.4855909 C16.3122417,43.4855909 16.44109,43.3796818 16.44109,43.2124091 C16.44109,43.0305909 16.2703435,42.9715 16.0036365,42.8569545 L15.6085317,42.6901364 C15.2850593,42.5587727 14.9818603,42.2837727 14.9818603,41.8287727 C14.9818603,41.3019545 15.446345,40.8810455 16.1045526,40.8810455 C16.4613633,40.8810455 16.8407,41.0183182 17.1096596,41.2937727 L16.7397838,41.7655909 C16.5365999,41.6110455 16.344679,41.5265 16.1045526,41.5265 C15.8752387,41.5265 15.7346769,41.6196818 15.7346769,41.7887727 C15.7346769,41.9601364 15.9293009,42.0274091 16.2045677,42.1360455 L16.5911127,42.2919545 C16.9740535,42.4487727 17.2015654,42.7110455 17.2015654,43.1533182 C17.2015654,43.6755909 16.7690675,44.1351364 16.0207562,44.1351364 C15.6184431,44.1351364 15.1863957,43.9846818 14.8656265,43.6842273" id="Fill-15" fill="#231916" mask="url(#mask-2)"></path>
                    <path d="M17.5986975,44.9533182 L17.732051,44.3828636 C17.7716966,44.3910455 17.8356703,44.4119545 17.8883809,44.4119545 C18.1127392,44.4119545 18.2285225,44.2937727 18.2839363,44.1265 L18.3159231,44.0037727 L17.4112818,41.6787727 L18.1541869,41.6787727 L18.471352,42.6728636 C18.5402813,42.8910455 18.5916404,43.1155909 18.6533615,43.3501364 L18.6736348,43.3501364 C18.7204888,43.1237727 18.77365,42.8992273 18.8281627,42.6728636 L19.101177,41.6787727 L19.8044365,41.6787727 L18.9939535,44.0819545 C18.7601344,44.6955909 18.507844,45.0001364 17.9464978,45.0001364 C17.7942226,45.0001364 17.6973611,44.9833182 17.5986975,44.9533182" id="Fill-16" fill="#231916" mask="url(#mask-2)"></path>
                    <path d="M20.1566068,41.6789545 L20.7598512,41.6789545 L20.8089578,41.9771364 L20.826528,41.9771364 C21.022053,41.7830455 21.2617289,41.6198636 21.5824982,41.6198636 C22.0987925,41.6198636 22.3177445,41.9916818 22.3177445,42.5925909 L22.3177445,44.0757727 L21.5770919,44.0757727 L21.5770919,42.6857727 C21.5770919,42.3557727 21.4914934,42.2585 21.3036272,42.2585 C21.1378363,42.2585 21.0382717,42.3344091 20.8927542,42.4744091 L20.8927542,44.0757727 L20.1566068,44.0757727 L20.1566068,41.6789545 Z" id="Fill-17" fill="#231916" mask="url(#mask-2)"></path>
                    <path d="M22.7501522,42.8785909 C22.7501522,42.0804091 23.3335738,41.6195 23.9926825,41.6195 C24.2805639,41.6195 24.5053726,41.7213182 24.683778,41.8754091 L24.3395818,42.3558636 C24.2292047,42.2626818 24.1382,42.2245 24.0350312,42.2245 C23.7106578,42.2245 23.5065729,42.4785909 23.5065729,42.8785909 C23.5065729,43.2740455 23.7201187,43.5276818 24.0093517,43.5276818 C24.1607259,43.5276818 24.3008372,43.4558636 24.4215762,43.3585909 L24.7036008,43.8535909 C24.4756384,44.0608636 24.1773951,44.1354091 23.9273573,44.1354091 C23.2619413,44.1354091 22.7501522,43.6713182 22.7501522,42.8785909" id="Fill-18" fill="#231916" mask="url(#mask-2)"></path>
                    <path d="M26.4858523,42.6095909 C26.4858523,42.3682273 26.382233,42.1905 26.1119219,42.1905 C25.9082875,42.1905 25.7289811,42.3218636 25.6807756,42.6095909 L26.4858523,42.6095909 Z M24.9770656,42.8786818 C24.9770656,42.0973182 25.5253467,41.6195909 26.0993074,41.6195909 C26.7804915,41.6195909 27.1138752,42.1186818 27.1138752,42.7791364 C27.1138752,42.9077727 27.0981071,43.0436818 27.0814379,43.0959545 L25.6929396,43.0959545 C25.7587153,43.4259545 25.9826231,43.5614091 26.2835695,43.5614091 C26.4520634,43.5614091 26.6110965,43.5105 26.7804915,43.4091364 L27.0264746,43.8618636 C26.7804915,44.0395909 26.4565686,44.1350455 26.1794997,44.1350455 C25.5010187,44.1350455 24.9770656,43.6714091 24.9770656,42.8786818 Z" id="Fill-19" fill="#231916" mask="url(#mask-2)"></path>
                    <path d="M28.9778057,43.3162273 L28.9778057,42.3730455 C28.8647256,42.2666818 28.7358773,42.2285 28.6119847,42.2285 C28.4074492,42.2285 28.2218356,42.4235 28.2218356,42.8680455 C28.2218356,43.3248636 28.3705067,43.5194091 28.6245992,43.5194091 C28.765161,43.5194091 28.8768896,43.4725909 28.9778057,43.3162273 M27.4600086,42.8785 C27.4600086,42.0889545 27.9461182,41.6198636 28.4367329,41.6198636 C28.6989347,41.6198636 28.8521111,41.7144091 29.0070895,41.8671364 L28.9778057,41.5094091 L28.9778057,40.7075909 L29.7207109,40.7075909 L29.7207109,44.0757727 L29.1183675,44.0757727 L29.0647558,43.8453182 L29.0489877,43.8453182 C28.8813948,44.0144091 28.6538829,44.1353182 28.4295246,44.1353182 C27.8393453,44.1353182 27.4600086,43.6589545 27.4600086,42.8785" id="Fill-20" fill="#231916" mask="url(#mask-2)"></path>
                    <polygon id="Fill-21" fill="#3F3A3A" mask="url(#mask-2)" points="11.8607126 14.8296818 9.79508492 14.8296818 7.89659961 16.0569545 13.7596484 16.0569545"></polygon>
                    <path d="M31.7358805,13.8120909 L35.0886398,13.8120909 L35.0886398,11.853 L38.088643,11.853 L38.088643,13.8120909 L41.1769479,13.8120909 L41.1769479,16.393 L38.0003414,16.393 L38.0003414,17.9075455 L40.4714358,17.9075455 L41.0007952,28.2348182 C41.0007952,28.5320909 41.0890968,28.6793636 41.264799,28.6793636 L41.5301545,28.6793636 L41.5301545,29.6589091 L41.5918755,29.6589091 C41.7684788,29.6589091 41.736492,29.5866364 41.736492,29.3020909 L41.736492,11.9425455 L50.9716724,11.9425455 L50.9716724,29.2134545 C50.9716724,29.5111818 51.0888073,29.6589091 51.3244285,29.6589091 L51.5010318,29.6589091 L51.5010318,31.9743636 L49.2948423,31.9743636 C48.2361236,32.0316364 47.7355975,31.2911818 47.7950659,29.748 L47.7950659,15.2366364 L45.1482692,15.2366364 L45.1482692,29.9261818 C45.2059356,31.4698182 44.5878241,32.1811818 43.2948358,32.0625455 L41.4423034,32.0625455 L41.4423034,31.1725455 L40.1177787,31.1725455 C39.2937803,31.2911818 38.8829073,30.7561818 38.8829073,29.5698182 L38.2656968,20.6670909 L38.0003414,20.6670909 L38.0003414,32.0625455 L35.0886398,32.0625455 L35.0886398,20.7561818 L34.912487,20.7561818 L34.2948261,29.8366364 C34.2511258,30.8993636 33.9465752,31.1725455 32.8180261,31.1725455 L31.4709756,31.1725455 L31.4709756,28.858 L31.8237316,28.858 C32.0584518,28.858 32.1769382,28.7107273 32.1769382,28.4120909 L32.7950497,17.9075455 L35.0886398,17.9075455 L35.0886398,16.393 L31.7358805,16.393 L31.7358805,13.8120909 Z" id="Fill-22" fill="#231916" mask="url(#mask-2)"></path>
                    <path d="M71.4435522,28.3233636 L67.825888,28.3233636 L67.825888,29.6588182 L71.0907961,29.6588182 C71.3845342,29.6588182 71.4435522,29.5229091 71.4435522,29.2133636 L71.4435522,28.3233636 Z M71.4435522,14.1688182 L67.825888,14.1688182 L67.825888,15.4142727 L71.0907961,15.4142727 C71.3845342,15.4142727 71.4435522,15.3033636 71.4435522,14.9701818 L71.4435522,14.1688182 Z M64.8249837,25.8301818 L74.5318571,25.8301818 L74.5318571,29.9260909 C74.5318571,31.3510909 73.8258944,32.0629091 72.4139692,32.0629091 L64.8249837,32.0629091 L64.8249837,25.8301818 Z M64.8249837,11.7651818 L74.5318571,11.7651818 L74.5318571,15.7706364 C74.5318571,17.0765455 73.8258944,17.7297273 72.4139692,17.7297273 L64.8249837,17.7297273 L64.8249837,11.7651818 Z M61.0307162,14.1688182 L57.4135025,14.1688182 L57.4135025,15.4142727 L60.7667123,15.4142727 C60.9937737,15.4142727 61.0307162,15.3447273 61.0307162,15.0947273 L61.0307162,14.1688182 Z M60.9424192,28.3233636 L57.2364487,28.3233636 L57.2364487,29.5697273 L60.5896585,29.5697273 C60.9478208,29.5697273 60.9424145,29.3642727 60.9424145,29.1247273 L60.9424192,28.3233636 Z M54.5018009,11.7651818 L64.1190211,11.7651818 L64.1190211,15.7706364 C64.1190211,17.137 63.413509,17.8183636 62.0015837,17.8183636 L54.5018009,17.8183636 L54.5018009,11.7651818 Z M54.4125982,18.8865455 L62.5313936,18.8865455 L62.5313936,18.2633636 L66.5018139,18.2633636 L66.5018139,18.8865455 L71.7084571,18.8865455 C72.0017447,18.8865455 72.1490643,18.797 72.1490643,18.6192727 L72.1490643,18.2633636 L74.6201587,18.2633636 L74.6201587,20.3110909 C74.6201587,21.027 74.0119586,21.4683636 72.9437791,21.4683636 L67.3843798,21.4683636 L68.5318506,22.4474545 C68.7080033,22.6256364 69.0017415,22.7151818 69.413966,22.7151818 L74.5318571,22.7151818 L74.5318571,25.2965455 L68.0015902,25.2965455 C67.4307832,25.2965455 67.1158707,25.2633636 66.8545699,25.0297273 L64.8249837,23.1601818 L63.2373562,24.7624545 C62.8836991,25.1133636 62.4498497,25.2965455 61.4722244,25.2965455 L54.3247471,25.2965455 L54.3247471,22.8033636 L59.7075431,22.8033636 C60.1778845,22.8033636 60.5013568,22.7456364 60.6779601,22.6256364 L62.0015837,21.4683636 L54.4125982,21.4683636 L54.4125982,18.8865455 Z M54.236896,25.8301818 L64.0307194,25.8301818 L64.0307194,29.9260909 C64.0307194,31.2910909 63.3252073,31.9742727 61.9137326,31.9742727 L54.236896,31.9742727 L54.236896,25.8301818 Z" id="Fill-23" fill="#231916" mask="url(#mask-2)"></path>
                    <path d="M81.5023707,11.6754091 L85.9147497,11.6754091 L86.4445595,12.2099545 C86.5616944,12.3295 86.8261488,12.3872273 87.2383733,12.3872273 L93.2388303,12.3872273 L93.2388303,14.9699545 L86.1796546,14.9699545 C84.7816954,14.9699545 84.2469299,14.8881364 83.8851635,14.4349545 L81.5023707,11.6754091 Z M77.267496,16.2154091 L97.4741555,16.2154091 L97.4741555,18.3526818 L85.7376959,27.6999545 L87.9443359,28.5017727 C88.3547583,28.6795 88.9435861,28.7681364 89.7090172,28.7681364 L97.4741555,28.7681364 L97.4741555,31.5281364 L89.1796578,31.5281364 C88.238074,31.5281364 87.4149766,31.4085909 86.7085634,31.1726818 L82.9142959,29.9263182 L80.6202553,31.4395 C80.2674992,31.6763182 79.825991,31.7963182 79.2966317,31.7963182 L77.1791944,31.7963182 L77.1791944,29.3022273 L77.9730081,29.3022273 C78.3257642,29.3022273 78.648786,29.1849545 78.9438756,28.9472273 L91.6503018,18.9758636 L77.267496,18.9758636 L77.267496,16.2154091 Z" id="Fill-24" fill="#231916" mask="url(#mask-2)"></path>
                    <path d="M116.004435,11.6754091 L119.180591,11.6754091 L119.180591,28.6795 C119.180591,29.0990455 119.357195,29.2135909 119.886554,29.2135909 L119.886554,31.9740455 L118.298926,31.9740455 C116.768965,31.9740455 116.004435,31.2908636 116.004435,29.9263182 L116.004435,11.6754091 Z M109.563371,11.6754091 L112.826928,11.6754091 L112.826928,23.6049545 C112.826928,24.1167727 112.9328,24.2276818 113.496398,24.2276818 L114.856964,24.2276818 L114.856964,27.3440455 L111.856961,27.3440455 C110.268883,27.4640455 109.503002,26.7513182 109.563371,25.2072273 L109.563371,11.6754091 Z M104.885637,11.6754091 L107.974392,11.6754091 L107.974392,28.6795 C107.974392,29.0363182 108.104592,29.3022273 108.64116,29.3022273 L114.856964,29.3022273 L114.856964,31.9740455 L107.091376,31.9740455 C105.511857,31.9740455 104.885637,31.2126818 104.885637,29.4804091 L104.885637,11.6754091 Z M100.738613,11.6754091 L103.91567,11.6754091 L103.91567,29.3022273 C103.91567,31.1676818 103.23809,31.8854091 101.445026,31.8854091 L99.680345,31.8854091 L99.680345,29.2135909 C100.52732,29.2135909 100.738613,29.0658636 100.738613,28.5017727 L100.738613,11.6754091 Z" id="Fill-25" fill="#231916" mask="url(#mask-2)"></path>
                </g>
            </g>
        </g>
    </g>
</svg>