<?xml version="1.0" encoding="UTF-8"?>
<svg width="130px" height="22px" viewBox="0 0 130 22" version="1.1" xmlns="http://www.w3.org/2000/svg" xmlns:xlink="http://www.w3.org/1999/xlink">
    <!-- Generator: Sketch 52.5 (67469) - http://www.bohemiancoding.com/sketch -->
    <title>NO.2</title>
    <desc>Created with Sketch.</desc>
    <g id="2018年12月05日" stroke="none" stroke-width="1" fill="none" fill-rule="evenodd">
        <g id="NO.2">
            <g>
                <rect id="Rectangle-24" fill="#121212" fill-rule="nonzero" x="0" y="0" width="46" height="22"></rect>
                <path d="M6.455,17 L6.455,5.96 L8.24,5.96 L11.9,12.44 L13.055,14.78 L13.13,14.78 C13.04,13.64 12.905,12.305 12.905,11.105 L12.905,5.96 L14.555,5.96 L14.555,17 L12.77,17 L9.11,10.49 L7.955,8.18 L7.88,8.18 C7.97,9.32 8.105,10.595 8.105,11.795 L8.105,17 L6.455,17 Z M21.665,17.195 C18.83,17.195 16.865,14.99 16.865,11.435 C16.865,7.88 18.83,5.75 21.665,5.75 C24.5,5.75 26.48,7.88 26.48,11.435 C26.48,14.99 24.5,17.195 21.665,17.195 Z M21.665,15.68 C23.495,15.68 24.695,14.03 24.695,11.435 C24.695,8.84 23.495,7.265 21.665,7.265 C19.835,7.265 18.65,8.84 18.65,11.435 C18.65,14.03 19.835,15.68 21.665,15.68 Z M29.555,17.195 C28.91,17.195 28.4,16.7 28.4,15.995 C28.4,15.29 28.91,14.765 29.555,14.765 C30.2,14.765 30.71,15.29 30.71,15.995 C30.71,16.7 30.2,17.195 29.555,17.195 Z M32.45,17 L32.45,15.995 C35.705,13.115 37.385,10.97 37.385,9.155 C37.385,7.955 36.74,7.13 35.51,7.13 C34.64,7.13 33.92,7.685 33.335,8.36 L32.36,7.4 C33.305,6.38 34.28,5.75 35.72,5.75 C37.745,5.75 39.05,7.07 39.05,9.065 C39.05,11.195 37.355,13.4 35.015,15.635 C35.585,15.575 36.275,15.53 36.815,15.53 L39.575,15.53 L39.575,17 L32.45,17 Z" fill="#FFFFFF"></path>
            </g>
            <path d="M78.8,5.168 L80.048,5.6 C79.376,6.96 78.48,8.512 77.76,9.552 L76.736,9.136 C77.44,8.096 78.32,6.4 78.8,5.168 Z M71.168,8.944 L70.032,9.44 C69.696,8.416 68.832,6.864 68,5.744 L69.04,5.312 C69.936,6.432 70.8,7.936 71.168,8.944 Z M74.624,4.608 L74.624,10.24 L79.84,10.24 L79.84,19.232 L78.608,19.232 L78.608,18.528 L67.904,18.528 L67.904,17.36 L78.608,17.36 L78.608,14.88 L68.736,14.88 L68.736,13.728 L78.608,13.728 L78.608,11.408 L68.208,11.408 L68.208,10.24 L73.344,10.24 L73.344,4.608 L74.624,4.608 Z M97.072,6.976 L90.32,6.976 L90.32,9.824 L90.528,9.584 C92.432,10.496 94.944,11.936 96.208,12.896 L95.376,13.968 C94.288,13.072 92.144,11.76 90.32,10.784 L90.32,19.2 L89.056,19.2 L89.056,6.976 L82.944,6.976 L82.944,5.792 L97.072,5.792 L97.072,6.976 Z M99.856,19.264 L98.752,18.816 C99.472,18.048 100.304,16.832 100.832,15.744 L101.936,16.048 C101.376,17.152 100.576,18.448 99.856,19.264 Z M104.624,10.672 L102.608,11.248 L102.608,13.968 C102.608,14.608 102.464,14.912 102.048,15.088 C101.648,15.28 101.008,15.296 99.968,15.296 C99.92,14.992 99.776,14.528 99.616,14.224 C100.352,14.24 101.024,14.24 101.216,14.24 C101.424,14.224 101.504,14.176 101.504,13.968 L101.504,11.552 C100.624,11.808 99.792,12.048 99.088,12.256 L98.784,11.104 C99.536,10.928 100.464,10.688 101.504,10.416 L101.504,7.952 L99.12,7.952 L99.12,6.832 L101.504,6.832 L101.504,4.624 L102.608,4.624 L102.608,6.832 L104.464,6.832 L104.464,7.952 L102.608,7.952 L102.608,10.112 C103.232,9.936 103.872,9.776 104.496,9.6 L104.624,10.672 Z M103.52,16.208 L104.608,16.096 C104.816,17.024 104.992,18.24 105.008,18.944 L103.84,19.12 C103.84,18.384 103.696,17.152 103.52,16.208 Z M106.8,16.176 L107.888,15.968 C108.336,16.88 108.768,18.096 108.928,18.848 L107.76,19.104 C107.616,18.352 107.2,17.12 106.8,16.176 Z M110.24,7.936 L108.096,7.936 C108.032,9.232 107.904,10.352 107.648,11.328 C108.496,11.872 109.296,12.4 109.824,12.832 L109.216,13.776 C108.752,13.376 108.08,12.88 107.328,12.352 C106.8,13.648 105.984,14.592 104.656,15.344 C104.512,15.072 104.176,14.672 103.904,14.48 C105.152,13.808 105.904,12.928 106.368,11.712 C105.808,11.376 105.264,11.024 104.768,10.72 L105.344,9.92 C105.76,10.16 106.208,10.432 106.656,10.688 C106.832,9.888 106.928,8.992 106.976,7.936 L104.848,7.936 L104.848,6.912 L107.008,6.912 C107.024,6.192 107.04,5.424 107.04,4.592 L108.176,4.592 C108.16,5.424 108.16,6.192 108.128,6.912 L111.376,6.912 C111.264,11.888 111.248,14.368 112.112,14.352 C112.4,14.352 112.512,13.936 112.56,12.608 C112.816,12.8 113.216,12.992 113.488,13.088 C113.36,14.896 113.008,15.424 112.064,15.424 C110.176,15.424 110.192,12.624 110.24,7.936 Z M110.08,16.096 L111.12,15.632 C111.92,16.592 112.864,17.92 113.264,18.768 L112.176,19.296 C111.776,18.448 110.864,17.072 110.08,16.096 Z M126.128,13.424 L126.128,10.576 L117.824,10.576 L117.824,13.424 L126.128,13.424 Z M127.328,9.456 L127.328,14.544 L116.688,14.544 L116.688,9.456 L121.28,9.456 L121.28,4.608 L122.464,4.608 L122.464,6.32 L128.512,6.32 L128.512,7.44 L122.464,7.44 L122.464,9.456 L127.328,9.456 Z M115.808,19.216 L114.72,18.688 C115.568,17.968 116.384,16.688 116.896,15.504 L118.016,15.792 C117.488,17.04 116.672,18.384 115.808,19.216 Z M119.456,15.936 L120.592,15.84 C120.8,16.848 120.976,18.16 120.992,18.928 L119.808,19.088 C119.808,18.288 119.664,16.96 119.456,15.936 Z M122.736,15.952 L123.808,15.712 C124.304,16.672 124.816,17.968 125.008,18.768 L123.856,19.04 C123.696,18.256 123.216,16.928 122.736,15.952 Z M125.984,15.808 L127.024,15.408 C127.84,16.416 128.752,17.744 129.152,18.64 L128.032,19.088 C127.664,18.208 126.784,16.832 125.984,15.808 Z" id="当下热点" fill="#A8A8A8"></path>
            <circle id="Oval" fill="#A8A8A8" fill-rule="nonzero" cx="56" cy="11" r="2"></circle>
        </g>
    </g>
</svg>