<?xml version="1.0" encoding="UTF-8"?>
<svg width="130px" height="22px" viewBox="0 0 130 22" version="1.1" xmlns="http://www.w3.org/2000/svg" xmlns:xlink="http://www.w3.org/1999/xlink">
    <!-- Generator: Sketch 52.5 (67469) - http://www.bohemiancoding.com/sketch -->
    <title>NO.8</title>
    <desc>Created with Sketch.</desc>
    <g id="2018年12月05日" stroke="none" stroke-width="1" fill="none" fill-rule="evenodd">
        <g id="NO.8">
            <path d="M78.896,5.576 L80.144,6.008 C79.472,7.368 78.576,8.92 77.856,9.96 L76.832,9.544 C77.536,8.504 78.416,6.808 78.896,5.576 Z M71.264,9.352 L70.128,9.848 C69.792,8.824 68.928,7.272 68.096,6.152 L69.136,5.72 C70.032,6.84 70.896,8.344 71.264,9.352 Z M74.72,5.016 L74.72,10.648 L79.936,10.648 L79.936,19.64 L78.704,19.64 L78.704,18.936 L68,18.936 L68,17.768 L78.704,17.768 L78.704,15.288 L68.832,15.288 L68.832,14.136 L78.704,14.136 L78.704,11.816 L68.304,11.816 L68.304,10.648 L73.44,10.648 L73.44,5.016 L74.72,5.016 Z M97.168,7.384 L90.416,7.384 L90.416,10.232 L90.624,9.992 C92.528,10.904 95.04,12.344 96.304,13.304 L95.472,14.376 C94.384,13.48 92.24,12.168 90.416,11.192 L90.416,19.608 L89.152,19.608 L89.152,7.384 L83.04,7.384 L83.04,6.2 L97.168,6.2 L97.168,7.384 Z M99.952,19.672 L98.848,19.224 C99.568,18.456 100.4,17.24 100.928,16.152 L102.032,16.456 C101.472,17.56 100.672,18.856 99.952,19.672 Z M104.72,11.08 L102.704,11.656 L102.704,14.376 C102.704,15.016 102.56,15.32 102.144,15.496 C101.744,15.688 101.104,15.704 100.064,15.704 C100.016,15.4 99.872,14.936 99.712,14.632 C100.448,14.648 101.12,14.648 101.312,14.648 C101.52,14.632 101.6,14.584 101.6,14.376 L101.6,11.96 C100.72,12.216 99.888,12.456 99.184,12.664 L98.88,11.512 C99.632,11.336 100.56,11.096 101.6,10.824 L101.6,8.36 L99.216,8.36 L99.216,7.24 L101.6,7.24 L101.6,5.032 L102.704,5.032 L102.704,7.24 L104.56,7.24 L104.56,8.36 L102.704,8.36 L102.704,10.52 C103.328,10.344 103.968,10.184 104.592,10.008 L104.72,11.08 Z M103.616,16.616 L104.704,16.504 C104.912,17.432 105.088,18.648 105.104,19.352 L103.936,19.528 C103.936,18.792 103.792,17.56 103.616,16.616 Z M106.896,16.584 L107.984,16.376 C108.432,17.288 108.864,18.504 109.024,19.256 L107.856,19.512 C107.712,18.76 107.296,17.528 106.896,16.584 Z M110.336,8.344 L108.192,8.344 C108.128,9.64 108,10.76 107.744,11.736 C108.592,12.28 109.392,12.808 109.92,13.24 L109.312,14.184 C108.848,13.784 108.176,13.288 107.424,12.76 C106.896,14.056 106.08,15 104.752,15.752 C104.608,15.48 104.272,15.08 104,14.888 C105.248,14.216 106,13.336 106.464,12.12 C105.904,11.784 105.36,11.432 104.864,11.128 L105.44,10.328 C105.856,10.568 106.304,10.84 106.752,11.096 C106.928,10.296 107.024,9.4 107.072,8.344 L104.944,8.344 L104.944,7.32 L107.104,7.32 C107.12,6.6 107.136,5.832 107.136,5 L108.272,5 C108.256,5.832 108.256,6.6 108.224,7.32 L111.472,7.32 C111.36,12.296 111.344,14.776 112.208,14.76 C112.496,14.76 112.608,14.344 112.656,13.016 C112.912,13.208 113.312,13.4 113.584,13.496 C113.456,15.304 113.104,15.832 112.16,15.832 C110.272,15.832 110.288,13.032 110.336,8.344 Z M110.176,16.504 L111.216,16.04 C112.016,17 112.96,18.328 113.36,19.176 L112.272,19.704 C111.872,18.856 110.96,17.48 110.176,16.504 Z M126.224,13.832 L126.224,10.984 L117.92,10.984 L117.92,13.832 L126.224,13.832 Z M127.424,9.864 L127.424,14.952 L116.784,14.952 L116.784,9.864 L121.376,9.864 L121.376,5.016 L122.56,5.016 L122.56,6.728 L128.608,6.728 L128.608,7.848 L122.56,7.848 L122.56,9.864 L127.424,9.864 Z M115.904,19.624 L114.816,19.096 C115.664,18.376 116.48,17.096 116.992,15.912 L118.112,16.2 C117.584,17.448 116.768,18.792 115.904,19.624 Z M119.552,16.344 L120.688,16.248 C120.896,17.256 121.072,18.568 121.088,19.336 L119.904,19.496 C119.904,18.696 119.76,17.368 119.552,16.344 Z M122.832,16.36 L123.904,16.12 C124.4,17.08 124.912,18.376 125.104,19.176 L123.952,19.448 C123.792,18.664 123.312,17.336 122.832,16.36 Z M126.08,16.216 L127.12,15.816 C127.936,16.824 128.848,18.152 129.248,19.048 L128.128,19.496 C127.76,18.616 126.88,17.24 126.08,16.216 Z" id="当下热点" fill="#A8A8A8"></path>
            <circle id="Oval" fill="#A8A8A8" fill-rule="nonzero" cx="56" cy="11" r="2"></circle>
            <g>
                <rect id="Rectangle-24" fill="#7D7D7D" fill-rule="nonzero" x="0" y="0" width="46" height="22"></rect>
                <path d="M6.455,17 L6.455,5.96 L8.24,5.96 L11.9,12.44 L13.055,14.78 L13.13,14.78 C13.04,13.64 12.905,12.305 12.905,11.105 L12.905,5.96 L14.555,5.96 L14.555,17 L12.77,17 L9.11,10.49 L7.955,8.18 L7.88,8.18 C7.97,9.32 8.105,10.595 8.105,11.795 L8.105,17 L6.455,17 Z M21.665,17.195 C18.83,17.195 16.865,14.99 16.865,11.435 C16.865,7.88 18.83,5.75 21.665,5.75 C24.5,5.75 26.48,7.88 26.48,11.435 C26.48,14.99 24.5,17.195 21.665,17.195 Z M21.665,15.68 C23.495,15.68 24.695,14.03 24.695,11.435 C24.695,8.84 23.495,7.265 21.665,7.265 C19.835,7.265 18.65,8.84 18.65,11.435 C18.65,14.03 19.835,15.68 21.665,15.68 Z M29.555,17.195 C28.91,17.195 28.4,16.7 28.4,15.995 C28.4,15.29 28.91,14.765 29.555,14.765 C30.2,14.765 30.71,15.29 30.71,15.995 C30.71,16.7 30.2,17.195 29.555,17.195 Z M36.08,17.195 C34.01,17.195 32.48,15.965 32.48,14.255 C32.48,12.8 33.44,11.825 34.46,11.285 L34.46,11.21 C33.635,10.625 32.975,9.8 32.975,8.63 C32.975,6.905 34.31,5.78 36.125,5.78 C38.045,5.78 39.245,6.98 39.245,8.705 C39.245,9.83 38.48,10.79 37.79,11.3 L37.79,11.375 C38.78,11.945 39.65,12.8 39.65,14.3 C39.65,15.935 38.21,17.195 36.08,17.195 Z M36.8,10.865 C37.46,10.25 37.79,9.545 37.79,8.81 C37.79,7.79 37.175,7.025 36.095,7.025 C35.195,7.025 34.52,7.64 34.52,8.63 C34.52,9.83 35.57,10.385 36.8,10.865 Z M36.11,15.95 C37.235,15.95 38.015,15.29 38.015,14.255 C38.015,12.905 36.8,12.395 35.3,11.78 C34.535,12.305 34.01,13.13 34.01,14.09 C34.01,15.185 34.925,15.95 36.11,15.95 Z" fill="#FFFFFF"></path>
            </g>
        </g>
    </g>
</svg>